<svg width="40" height="40" viewBox="0 0 40 40" fill="none" xmlns="http://www.w3.org/2000/svg">
<path d="M23.0922 36.9996C21.9703 36.9996 20.9964 36.2053 20.7764 35.1112C20.775 35.1049 20.774 35.0983 20.7729 35.092L19.9995 29.7644L19.226 35.0918C19.225 35.0984 19.2239 35.1047 19.2226 35.111C19.0029 36.2054 18.0286 36.9996 16.907 36.9996C15.6046 36.9996 14.5449 35.9456 14.5449 34.6502V18.553C14.5449 18.3533 14.7077 18.1914 14.9084 18.1914C15.1092 18.1914 15.2719 18.3533 15.2719 18.553V34.6502C15.2722 35.5468 16.0056 36.2762 16.907 36.2762C17.6804 36.2762 18.3523 35.7309 18.508 34.9784L19.6397 27.1824C19.6655 27.0045 19.8188 26.8725 19.9995 26.8725C20.1802 26.8725 20.3334 27.0045 20.3593 27.1824L21.491 34.9784C21.6472 35.731 22.3191 36.2762 23.0923 36.2762C23.9937 36.2762 24.7267 35.5468 24.7267 34.6502V18.553C24.7267 18.3533 24.8895 18.1914 25.0903 18.1914C25.291 18.1914 25.4538 18.3533 25.4538 18.553V34.6502C25.454 35.9456 24.3946 36.9996 23.0922 36.9996L23.0922 36.9996Z" fill="url(#paint0_linear_18_4359)" stroke="url(#paint1_linear_18_4359)" stroke-width="0.7"/>
<path d="M27.999 25.4257H25.0898C24.8891 25.4257 24.7263 25.2638 24.7263 25.0641C24.7263 24.8645 24.8891 24.7026 25.0898 24.7026H27.6352V18.5537C27.6352 14.3653 24.2095 10.9578 19.9986 10.9578C15.7879 10.9578 12.3621 14.3653 12.3621 18.5537V24.7026H14.9074C15.1082 24.7026 15.2709 24.8645 15.2709 25.0641C15.2709 25.2638 15.1082 25.4257 14.9074 25.4257H11.9983C11.7975 25.4257 11.6348 25.2638 11.6348 25.0641V18.5537C11.6348 13.9665 15.3868 10.2344 19.9986 10.2344C24.6104 10.2344 28.3625 13.9664 28.3625 18.5537V25.0641C28.3628 25.2638 28.2 25.4257 27.999 25.4257H27.999Z" fill="url(#paint2_linear_18_4359)" stroke="url(#paint3_linear_18_4359)" stroke-width="0.7"/>
<path d="M19.9999 10.9572C17.7943 10.9572 16 9.17246 16 6.97861C16 4.78477 17.7943 3 19.9999 3C22.2055 3 23.9999 4.78477 23.9999 6.97861C23.9999 9.17246 22.2055 10.9572 19.9999 10.9572ZM19.9999 3.72345C18.1953 3.72345 16.7273 5.18364 16.7273 6.97868C16.7273 8.77373 18.1953 10.2339 19.9999 10.2339C21.8046 10.2339 23.2726 8.77373 23.2726 6.97868C23.2726 5.18391 21.8046 3.72345 19.9999 3.72345Z" fill="url(#paint4_linear_18_4359)" stroke="url(#paint5_linear_18_4359)" stroke-width="0.7"/>
<path d="M31.6365 21.8091H8.36351C8.16276 21.8091 8 21.6472 8 21.4475C8 21.2478 8.16277 21.0859 8.36351 21.0859H31.6365C31.8372 21.0859 32 21.2478 32 21.4475C32 21.6472 31.8372 21.8091 31.6365 21.8091Z" fill="url(#paint6_linear_18_4359)" stroke="url(#paint7_linear_18_4359)" stroke-width="0.7"/>
<defs>
<linearGradient id="paint0_linear_18_4359" x1="13.3604" y1="36.9996" x2="26.9428" y2="36.424" gradientUnits="userSpaceOnUse">
<stop stop-color="#6B4DE0"/>
<stop offset="0.544792" stop-color="#9C42E3"/>
<stop offset="1" stop-color="#C339E5"/>
</linearGradient>
<linearGradient id="paint1_linear_18_4359" x1="13.3604" y1="36.9996" x2="26.9428" y2="36.424" gradientUnits="userSpaceOnUse">
<stop stop-color="#6B4DE0"/>
<stop offset="0.544792" stop-color="#9C42E3"/>
<stop offset="1" stop-color="#C339E5"/>
</linearGradient>
<linearGradient id="paint2_linear_18_4359" x1="9.81837" y1="25.4257" x2="30.549" y2="23.7576" gradientUnits="userSpaceOnUse">
<stop stop-color="#6B4DE0"/>
<stop offset="0.544792" stop-color="#9C42E3"/>
<stop offset="1" stop-color="#C339E5"/>
</linearGradient>
<linearGradient id="paint3_linear_18_4359" x1="9.81837" y1="25.4257" x2="30.549" y2="23.7576" gradientUnits="userSpaceOnUse">
<stop stop-color="#6B4DE0"/>
<stop offset="0.544792" stop-color="#9C42E3"/>
<stop offset="1" stop-color="#C339E5"/>
</linearGradient>
<linearGradient id="paint4_linear_18_4359" x1="15.1313" y1="10.9572" x2="25.0561" y2="10.2281" gradientUnits="userSpaceOnUse">
<stop stop-color="#6B4DE0"/>
<stop offset="0.544792" stop-color="#9C42E3"/>
<stop offset="1" stop-color="#C339E5"/>
</linearGradient>
<linearGradient id="paint5_linear_18_4359" x1="15.1313" y1="10.9572" x2="25.0561" y2="10.2281" gradientUnits="userSpaceOnUse">
<stop stop-color="#6B4DE0"/>
<stop offset="0.544792" stop-color="#9C42E3"/>
<stop offset="1" stop-color="#C339E5"/>
</linearGradient>
<linearGradient id="paint6_linear_18_4359" x1="5.39394" y1="21.8091" x2="9.74403" y2="11.2592" gradientUnits="userSpaceOnUse">
<stop stop-color="#6B4DE0"/>
<stop offset="0.544792" stop-color="#9C42E3"/>
<stop offset="1" stop-color="#C339E5"/>
</linearGradient>
<linearGradient id="paint7_linear_18_4359" x1="5.39394" y1="21.8091" x2="9.74403" y2="11.2592" gradientUnits="userSpaceOnUse">
<stop stop-color="#6B4DE0"/>
<stop offset="0.544792" stop-color="#9C42E3"/>
<stop offset="1" stop-color="#C339E5"/>
</linearGradient>
</defs>
</svg>
