<svg width="40" height="40" viewBox="0 0 40 40" fill="none" xmlns="http://www.w3.org/2000/svg">
<path d="M28.6116 21.0871V25.2766C28.6116 26.0132 28.3189 26.7197 27.7981 27.2409C27.2771 27.7617 26.5705 28.0543 25.8339 28.0543H19.2365C18.9297 28.0543 18.6809 27.8055 18.6809 27.4988C18.6809 27.192 18.9297 26.9432 19.2365 26.9432H25.8339C26.2758 26.9432 26.6999 26.7676 27.0124 26.4551C27.3248 26.1426 27.5005 25.7185 27.5005 25.2766V21.0872C27.5005 20.7801 27.7492 20.5316 28.056 20.5316C28.3628 20.5316 28.6116 20.7801 28.6116 21.0872L28.6116 21.0871ZM20.8339 29.6515C20.5271 29.6515 20.2783 29.9003 20.2783 30.207C20.2783 30.5017 20.1613 30.7844 19.953 30.9928C19.7446 31.2011 19.4619 31.3181 19.1672 31.3181H17.7784C17.4837 31.3181 17.201 31.2011 16.9927 30.9928C16.7843 30.7844 16.6673 30.5017 16.6673 30.207V27.4988C16.6673 27.3514 16.6087 27.2101 16.5046 27.1059C16.4004 27.0017 16.259 26.9432 16.1117 26.9432H11.1118C10.6698 26.9432 10.2457 26.7676 9.93324 26.4551C9.6208 26.1426 9.44515 25.7185 9.44515 25.2766V6.10978C9.44515 5.66782 9.62074 5.2437 9.93324 4.93125C10.2457 4.61881 10.6699 4.44316 11.1118 4.44316H25.8342C26.2761 4.44316 26.7003 4.61876 27.0127 4.93125C27.3251 5.24375 27.5008 5.66788 27.5008 6.10978V7.82304C27.5008 8.12983 27.7495 8.37859 28.0563 8.37859C28.3631 8.37859 28.6119 8.12983 28.6119 7.82304V6.10978C28.6119 5.37315 28.3192 4.66662 27.7984 4.14548C27.2774 3.62466 26.5708 3.33203 25.8341 3.33203H11.1117C10.3751 3.33203 9.66857 3.62469 9.14744 4.14548C8.62661 4.66656 8.33398 5.37315 8.33398 6.10978V25.2766C8.33398 26.0132 8.62664 26.7197 9.14744 27.2409C9.66851 27.7617 10.3751 28.0543 11.1117 28.0543H15.5561V30.2071C15.5561 30.7964 15.7903 31.3616 16.2069 31.7785C16.6238 32.1952 17.1891 32.4293 17.7783 32.4293H17.9172V36.1098C17.9172 36.4166 18.166 36.6654 18.4728 36.6654C18.7796 36.6654 19.0283 36.4166 19.0283 36.1098V32.4293H19.1672C19.7565 32.4293 20.3217 32.1952 20.7386 31.7785C21.1553 31.3616 21.3894 30.7963 21.3894 30.2071C21.3894 30.0598 21.3309 29.9184 21.2267 29.8142C21.1226 29.7101 20.9812 29.6515 20.8339 29.6515L20.8339 29.6515ZM13.4727 7.15139H23.4726C23.7672 7.15139 24.05 7.26846 24.2583 7.47679C24.4666 7.68511 24.5837 7.96785 24.5837 8.26249C24.5837 8.56928 24.8325 8.81804 25.1393 8.81804C25.446 8.81804 25.6948 8.56928 25.6948 8.26249C25.6948 7.67322 25.4607 7.10796 25.044 6.69108C24.6271 6.27442 24.0619 6.04029 23.4726 6.04029H13.4727C12.8834 6.04029 12.3182 6.27442 11.9013 6.69108C11.4846 7.10799 11.2505 7.67323 11.2505 8.26249V15.6929C11.2505 16.2822 11.4846 16.8474 11.9013 17.2643C12.3182 17.681 12.8834 17.9151 13.4727 17.9151H20.7412C21.048 17.9151 21.2968 17.6663 21.2968 17.3595C21.2968 17.0528 21.048 16.804 20.7412 16.804H13.4727C13.1781 16.804 12.8953 16.6869 12.687 16.4786C12.4787 16.2703 12.3616 15.9875 12.3616 15.6929V8.26249C12.3616 7.96785 12.4787 7.68511 12.687 7.47679C12.8953 7.26846 13.1781 7.15139 13.4727 7.15139ZM17.3616 21.2484H19.5838C19.8784 21.2484 20.1611 21.3655 20.3695 21.5738C20.5778 21.7821 20.6949 22.0649 20.6949 22.3595C20.6949 22.6663 20.9436 22.9151 21.2504 22.9151C21.5572 22.9151 21.806 22.6663 21.806 22.3595C21.806 21.7702 21.5718 21.205 21.1552 20.7881C20.7383 20.3714 20.173 20.1373 19.5838 20.1373H17.3616C16.5677 20.1373 15.834 20.5609 15.437 21.2484C15.0402 21.9359 15.0402 22.7831 15.437 23.4706C15.8341 24.1581 16.5677 24.5817 17.3616 24.5817H19.5838C19.8905 24.5817 20.1393 24.3329 20.1393 24.0262C20.1393 23.7194 19.8905 23.4706 19.5838 23.4706H17.3616C16.9645 23.4706 16.5977 23.2588 16.3993 22.9151C16.2009 22.5713 16.2009 22.1477 16.3993 21.804C16.5977 21.4602 16.9645 21.2484 17.3616 21.2484ZM26.1812 19.304C22.9964 19.304 21.1117 15.7187 22.9297 13.0942L24.445 10.9109C24.8409 10.3415 25.4904 10.0017 26.1839 10.0017C26.8776 10.0017 27.5271 10.3415 27.9227 10.9109L29.4351 13.0922C31.2555 15.7199 29.3609 19.3039 26.1812 19.3039V19.304ZM28.5194 13.7276L27.007 11.5464H27.0068C26.8195 11.2751 26.5108 11.1131 26.1812 11.1131C25.8515 11.1131 25.5427 11.2751 25.3555 11.5464L23.8431 13.7276H23.8429C23.4453 14.2998 23.2715 14.9977 23.3541 15.6897C23.4367 16.3814 23.77 17.019 24.2908 17.4816C24.8119 17.9441 25.4845 18.1996 26.1811 18.1996C26.8778 18.1996 27.5504 17.9442 28.0715 17.4816C28.5923 17.019 28.9256 16.3814 29.0082 15.6897C29.0908 14.9977 28.917 14.2998 28.5194 13.7276H28.5194Z" fill="url(#paint0_linear_18_4475)" stroke="url(#paint1_linear_18_4475)" stroke-width="0.7"/>
<defs>
<linearGradient id="paint0_linear_18_4475" x1="5.96562" y1="36.6654" x2="33.1088" y2="35.3675" gradientUnits="userSpaceOnUse">
<stop stop-color="#6B4DE0"/>
<stop offset="0.544792" stop-color="#9C42E3"/>
<stop offset="1" stop-color="#C339E5"/>
</linearGradient>
<linearGradient id="paint1_linear_18_4475" x1="5.96562" y1="36.6654" x2="33.1088" y2="35.3675" gradientUnits="userSpaceOnUse">
<stop stop-color="#6B4DE0"/>
<stop offset="0.544792" stop-color="#9C42E3"/>
<stop offset="1" stop-color="#C339E5"/>
</linearGradient>
</defs>
</svg>
