<svg width="32" height="32" viewBox="0 0 32 32" fill="none" xmlns="http://www.w3.org/2000/svg">
<path d="M26.2352 3.16752C25.927 2.85915 25.5011 2.66797 25.0303 2.66797H22.1884C21.874 2.66797 21.62 2.92281 21.62 3.23633V4.37285C21.62 4.68701 21.8742 4.94122 22.1884 4.94122H24.4619V9.34724C24.4619 10.7174 23.5811 11.8826 22.869 12.9834C21.7497 14.7142 19.2174 14.7142 18.0978 12.984C17.3612 11.8462 16.5049 10.7666 16.5049 9.34728V4.94126H18.7784C19.0928 4.94126 19.3468 4.68704 19.3468 4.37289L19.3466 3.23637C19.3466 2.92283 19.0924 2.66801 18.778 2.66801H15.9361C15.4653 2.66801 15.0391 2.85919 14.7305 3.16756C14.4218 3.47592 14.231 3.90233 14.231 4.37312V8.17274C14.231 10.1443 14.8283 11.9792 15.8352 13.6744C17.6292 16.694 19.3468 17.7117 19.2992 19.3527C19.268 20.4052 19.2992 21.4603 19.2992 22.5144C19.2992 25.021 17.2589 27.0614 14.7522 27.0614H13.6624C11.1553 27.0614 9.11534 25.021 9.11534 22.5144V18.415C10.7583 17.9262 11.9572 16.4065 11.9572 14.6038C11.9572 12.4068 10.1756 10.6252 7.97861 10.6252C5.78097 10.6252 4 12.4068 4 14.6038C4 16.4065 5.19816 17.9262 6.84188 18.415V22.5139C6.8425 26.2809 9.89561 29.3346 13.6626 29.3346H14.7524C18.5186 29.3346 21.5731 26.2807 21.5731 22.5139V20.6744C21.5731 19.8064 21.5492 18.2029 21.9284 17.4215C23.1919 16.4106 24.6281 15.3584 25.3856 13.8222C26.4566 12.1671 26.7354 10.1442 26.7354 8.1729V4.37265C26.7354 3.90183 26.5441 3.47587 26.2353 3.16708L26.2352 3.16752ZM5.84778 14.6032C5.84778 13.4286 6.8043 12.4719 7.97907 12.4719C9.15363 12.4719 10.1104 13.4286 10.1104 14.6032C10.1104 15.7784 9.15363 16.7345 7.97907 16.7345C6.80408 16.7347 5.84778 15.7782 5.84778 14.6032Z" fill="#9E62B3"/>
</svg>
