<svg width="32" height="32" viewBox="0 0 32 32" fill="none" xmlns="http://www.w3.org/2000/svg">
<path fill-rule="evenodd" clip-rule="evenodd" d="M14.9912 18.8227V15.8881H16.6128C17.2772 15.8881 17.8381 15.6801 18.2953 15.27L18.405 15.166C19.2402 14.3168 19.1853 12.9939 18.2953 12.2082C17.8503 11.7923 17.2407 11.567 16.6128 11.5785H14.0098V18.8227H14.9912ZM14.9912 14.9985V12.4682H16.6374C16.991 12.4682 17.3264 12.5953 17.5763 12.8264C18.1068 13.3116 18.119 14.1204 17.6068 14.623C17.3568 14.8714 17.0032 15.01 16.6374 14.9985H14.9912ZM22.9829 14.2532C22.5623 13.8893 21.9892 13.7044 21.2638 13.7044C20.3311 13.7044 19.6301 14.0279 19.1668 14.6692L20.0324 15.1833C20.3494 14.7443 20.7822 14.5247 21.3309 14.5247C21.6783 14.5247 22.0136 14.6461 22.2757 14.8656C22.5318 15.0735 22.6781 15.3739 22.6781 15.6917V15.9054C22.3001 15.709 21.8246 15.605 21.2394 15.605C20.5567 15.605 20.008 15.7552 19.5996 16.0614C19.1912 16.3676 18.9839 16.7719 18.9839 17.2861C18.9717 17.754 19.1851 18.1988 19.563 18.4992C19.9471 18.8227 20.4347 18.9845 21.0078 18.9845C21.6844 18.9845 22.2209 18.7014 22.6293 18.1353H22.672V18.8227H23.6108V15.7668C23.6108 15.1255 23.4035 14.6172 22.9829 14.2532ZM20.3183 17.91C20.1171 17.7713 19.9951 17.546 19.9951 17.3034C19.9951 17.0319 20.1293 16.8066 20.3914 16.6275C20.6597 16.4484 20.995 16.356 21.3913 16.356C21.9401 16.3502 22.3668 16.4657 22.6717 16.6968C22.6717 17.0896 22.5071 17.4305 22.1839 17.7193C21.8913 17.9966 21.495 18.1526 21.0804 18.1526C20.806 18.1584 20.5377 18.0717 20.3183 17.91ZM25.72 21.0006L28.9997 13.8662H27.9329L26.415 17.4247H26.3967L24.8422 13.8662H23.7754L25.9273 18.505L24.7081 21.0006H25.72Z" fill="#3C4043"/>
<path d="M11.603 15.2536C11.603 14.9705 11.5786 14.6874 11.5298 14.4102H7.39062V16.0104H9.76198C9.66444 16.5245 9.34745 16.9866 8.88415 17.2755V18.3153H10.2984C11.1275 17.5932 11.603 16.5245 11.603 15.2536Z" fill="#4285F4"/>
<path d="M7.39045 19.3192C8.57308 19.3192 9.57282 18.9495 10.2983 18.314L8.88397 17.2742C8.48773 17.5283 7.98176 17.6728 7.39045 17.6728C6.24439 17.6728 5.27513 16.9391 4.92765 15.957H3.4707V17.0315C4.21442 18.4353 5.73233 19.3192 7.39045 19.3192Z" fill="#34A853"/>
<path d="M4.92817 15.9561C4.74526 15.442 4.74526 14.8816 4.92817 14.3617V13.293H3.47099C2.843 14.4657 2.843 15.8521 3.47099 17.0248L4.92817 15.9561Z" fill="#FBBC04"/>
<path d="M7.39045 12.6467C8.01834 12.6351 8.62184 12.8604 9.07295 13.2706L10.3287 12.0805C9.53015 11.3757 8.48164 10.9887 7.39045 11.0003C5.73233 11.0003 4.21442 11.8899 3.4707 13.2937L4.92765 14.3682C5.27513 13.3803 6.24439 12.6467 7.39045 12.6467Z" fill="#EA4335"/>
</svg>
