<svg width="40" height="40" viewBox="0 0 40 40" fill="none" xmlns="http://www.w3.org/2000/svg">
<path d="M18.84 33.0019C18.4247 33.0019 18.0877 32.6587 18.0877 32.2357L18.0907 28.7865C18.0937 27.0442 18.0983 25.3037 18.0801 23.563C18.0756 23.14 18.4096 22.7937 18.8249 22.7891H18.8325C19.2432 22.7891 19.5803 23.1277 19.5848 23.5476C19.6029 25.2945 19.5984 27.0411 19.5953 28.7896L19.5923 32.2357C19.5921 32.6587 19.2551 33.002 18.84 33.002L18.84 33.0019Z" fill="url(#paint0_linear_18_4505)" stroke="url(#paint1_linear_18_4505)" stroke-width="0.5"/>
<path d="M9.788 29.1721C6.18034 29.1721 3.01795 26.4016 2.27003 22.5861C1.3749 18.0244 2.70776 13.7615 6.23134 9.91586C7.88632 8.10766 9.9969 7.13004 12.508 7.0077L12.7621 7C14.6231 7 16.2316 7.99916 17.0604 9.67215C17.7719 11.1064 17.8172 12.6401 17.1899 13.9917C16.6212 15.2158 15.5409 16.169 14.16 16.6975C15.0926 18.7814 14.8249 20.4332 13.3296 21.7829C13.4167 21.8381 13.5011 21.8948 13.5852 21.9546C14.715 22.7621 15.347 23.9097 15.3213 25.1033C15.2956 26.2526 14.6519 27.3236 13.5505 28.0407C12.6236 28.6443 11.4834 29.0461 10.4195 29.1425C10.2092 29.1627 9.99994 29.1717 9.78787 29.1717L9.788 29.1721ZM12.7622 8.53221L12.5816 8.53683C10.4756 8.64097 8.70777 9.45751 7.32984 10.9607C4.1133 14.4743 2.93963 18.1797 3.7461 22.2873C4.35384 25.3887 6.89488 27.6396 9.78949 27.6396C9.95496 27.6396 10.1219 27.6319 10.2889 27.6165C11.1072 27.5429 12.0235 27.2182 12.7428 26.7523C13.4229 26.308 13.8065 25.7104 13.8201 25.0713C13.8352 24.3988 13.435 23.7184 12.7232 23.2095C12.5141 23.0594 12.287 22.9337 12.0356 22.7942L11.5752 22.5325C11.348 22.3976 11.2052 22.1511 11.2007 21.8812C11.1961 21.6116 11.3316 21.3602 11.5558 21.2178C13.471 20.0027 13.6906 18.8412 12.4224 16.6117C12.302 16.3988 12.2884 16.1428 12.3849 15.9191C12.4811 15.6954 12.6768 15.5315 12.9116 15.4794C14.2777 15.1713 15.3413 14.39 15.8302 13.3372C16.2558 12.4209 16.2168 11.3651 15.7188 10.3646C15.1499 9.21693 14.0442 8.53207 12.7623 8.53207L12.7622 8.53221Z" fill="url(#paint2_linear_18_4505)" stroke="url(#paint3_linear_18_4505)" stroke-width="0.5"/>
<path d="M18.8321 24.3214C18.4213 24.3214 18.0843 23.9828 18.0797 23.5628C18.0631 21.8772 17.1862 21.0238 15.3989 20.9502C14.9851 20.9317 14.6617 20.5764 14.6783 20.1519C14.698 19.7304 15.0876 19.4303 15.4621 19.418C18.0588 19.5252 19.5617 21.03 19.5859 23.5475C19.5904 23.9705 19.2564 24.3168 18.8411 24.3214H18.832H18.8321Z" fill="url(#paint4_linear_18_4505)" stroke="url(#paint5_linear_18_4505)" stroke-width="0.5"/>
<path d="M21.1636 32.998C20.7482 32.998 20.4112 32.6548 20.4112 32.2318L20.4082 28.9589C20.4037 27.1537 20.3992 25.3488 20.4188 23.5437C20.4233 23.1238 20.7603 22.7852 21.1711 22.7852H21.1787C21.594 22.7898 21.928 23.1361 21.9234 23.5591C21.9038 25.3581 21.9083 27.1583 21.9129 28.9558L21.9159 32.2318C21.9159 32.6548 21.5789 32.998 21.1636 32.998H21.1636Z" fill="url(#paint6_linear_18_4505)" stroke="url(#paint7_linear_18_4505)" stroke-width="0.5"/>
<path d="M30.2127 29.1702C30.0021 29.1702 29.7913 29.161 29.5777 29.1412C28.5156 29.0448 27.3752 28.6433 26.4484 28.0395C25.3485 27.3222 24.7032 26.2513 24.6775 25.1021C24.6518 23.9101 25.2837 22.7624 26.4121 21.9533C26.4964 21.8935 26.5806 21.8369 26.6692 21.7817C25.1739 20.4304 24.9059 18.7799 25.8388 16.6962C24.4596 16.1675 23.3794 15.2143 22.8107 13.9917C22.1833 12.6388 22.2284 11.1048 22.9401 9.67215C23.7705 7.9989 25.3774 7 27.2369 7L27.491 7.0077C30.0018 7.13031 32.1142 8.10943 33.7692 9.91586C37.2912 13.7634 38.6241 18.026 37.7305 22.5861C36.9812 26.4 33.8203 29.1701 30.2125 29.1701L30.2127 29.1702ZM27.2384 8.53034C25.9567 8.53034 24.8523 9.21527 24.2836 10.3614C23.7857 11.3621 23.7466 12.4192 24.1723 13.334C24.6611 14.3883 25.7247 15.1681 27.0909 15.4762C27.3241 15.5283 27.5195 15.6937 27.6175 15.9159C27.7122 16.1395 27.7004 16.3955 27.58 16.6085C26.3116 18.8379 26.5315 19.9994 28.4466 21.2146C28.6708 21.3572 28.8063 21.6083 28.8018 21.878C28.7972 22.1476 28.6544 22.3943 28.4272 22.5293L27.9683 22.7912C27.717 22.9323 27.4898 23.0577 27.2792 23.2065C26.5677 23.7152 26.169 24.3939 26.1823 25.0683C26.1959 25.7073 26.5795 26.3048 27.2595 26.7493C27.9786 27.2167 28.8949 27.5415 29.7119 27.6136C32.8232 27.897 35.6107 25.5634 36.2563 22.2828C37.0612 18.1762 35.8878 14.4714 32.6713 10.9561C31.2931 9.45291 29.5255 8.63618 27.4192 8.53203L27.2384 8.53034Z" fill="url(#paint8_linear_18_4505)" stroke="url(#paint9_linear_18_4505)" stroke-width="0.5"/>
<path d="M21.1703 24.3214H21.1628C20.7475 24.3167 20.4135 23.9704 20.418 23.5475C20.4437 21.0284 21.9466 19.5252 24.5417 19.418C24.9901 19.4287 25.3059 19.7307 25.3255 20.1519C25.3421 20.5749 25.0185 20.9317 24.6049 20.9502C22.8177 21.0238 21.9405 21.8772 21.9241 23.5628C21.9181 23.9827 21.5811 24.3214 21.1703 24.3214H21.1703Z" fill="url(#paint10_linear_18_4505)" stroke="url(#paint11_linear_18_4505)" stroke-width="0.5"/>
<defs>
<linearGradient id="paint0_linear_18_4505" x1="17.9152" y1="33.002" x2="19.8085" y2="32.9814" gradientUnits="userSpaceOnUse">
<stop stop-color="#6B4DE0"/>
<stop offset="0.544792" stop-color="#9C42E3"/>
<stop offset="1" stop-color="#C339E5"/>
</linearGradient>
<linearGradient id="paint1_linear_18_4505" x1="17.9152" y1="33.002" x2="19.8085" y2="32.9814" gradientUnits="userSpaceOnUse">
<stop stop-color="#6B4DE0"/>
<stop offset="0.544792" stop-color="#9C42E3"/>
<stop offset="1" stop-color="#C339E5"/>
</linearGradient>
<linearGradient id="paint2_linear_18_4505" x1="0.302875" y1="29.1721" x2="19.746" y2="28.1705" gradientUnits="userSpaceOnUse">
<stop stop-color="#6B4DE0"/>
<stop offset="0.544792" stop-color="#9C42E3"/>
<stop offset="1" stop-color="#C339E5"/>
</linearGradient>
<linearGradient id="paint3_linear_18_4505" x1="0.302875" y1="29.1721" x2="19.746" y2="28.1705" gradientUnits="userSpaceOnUse">
<stop stop-color="#6B4DE0"/>
<stop offset="0.544792" stop-color="#9C42E3"/>
<stop offset="1" stop-color="#C339E5"/>
</linearGradient>
<linearGradient id="paint4_linear_18_4505" x1="14.1448" y1="24.3214" x2="20.2342" y2="23.8759" gradientUnits="userSpaceOnUse">
<stop stop-color="#6B4DE0"/>
<stop offset="0.544792" stop-color="#9C42E3"/>
<stop offset="1" stop-color="#C339E5"/>
</linearGradient>
<linearGradient id="paint5_linear_18_4505" x1="14.1448" y1="24.3214" x2="20.2342" y2="23.8759" gradientUnits="userSpaceOnUse">
<stop stop-color="#6B4DE0"/>
<stop offset="0.544792" stop-color="#9C42E3"/>
<stop offset="1" stop-color="#C339E5"/>
</linearGradient>
<linearGradient id="paint6_linear_18_4505" x1="20.2393" y1="32.998" x2="22.134" y2="32.9775" gradientUnits="userSpaceOnUse">
<stop stop-color="#6B4DE0"/>
<stop offset="0.544792" stop-color="#9C42E3"/>
<stop offset="1" stop-color="#C339E5"/>
</linearGradient>
<linearGradient id="paint7_linear_18_4505" x1="20.2393" y1="32.998" x2="22.134" y2="32.9775" gradientUnits="userSpaceOnUse">
<stop stop-color="#6B4DE0"/>
<stop offset="0.544792" stop-color="#9C42E3"/>
<stop offset="1" stop-color="#C339E5"/>
</linearGradient>
<linearGradient id="paint8_linear_18_4505" x1="20.674" y1="29.1702" x2="40.1164" y2="28.1687" gradientUnits="userSpaceOnUse">
<stop stop-color="#6B4DE0"/>
<stop offset="0.544792" stop-color="#9C42E3"/>
<stop offset="1" stop-color="#C339E5"/>
</linearGradient>
<linearGradient id="paint9_linear_18_4505" x1="20.674" y1="29.1702" x2="40.1164" y2="28.1687" gradientUnits="userSpaceOnUse">
<stop stop-color="#6B4DE0"/>
<stop offset="0.544792" stop-color="#9C42E3"/>
<stop offset="1" stop-color="#C339E5"/>
</linearGradient>
<linearGradient id="paint10_linear_18_4505" x1="19.885" y1="24.3214" x2="25.9745" y2="23.8759" gradientUnits="userSpaceOnUse">
<stop stop-color="#6B4DE0"/>
<stop offset="0.544792" stop-color="#9C42E3"/>
<stop offset="1" stop-color="#C339E5"/>
</linearGradient>
<linearGradient id="paint11_linear_18_4505" x1="19.885" y1="24.3214" x2="25.9745" y2="23.8759" gradientUnits="userSpaceOnUse">
<stop stop-color="#6B4DE0"/>
<stop offset="0.544792" stop-color="#9C42E3"/>
<stop offset="1" stop-color="#C339E5"/>
</linearGradient>
</defs>
</svg>
