<svg width="40" height="40" viewBox="0 0 40 40" fill="none" xmlns="http://www.w3.org/2000/svg">
<path d="M6.06836 36.6673C6.04837 36.6673 6.02837 36.6673 6.00791 36.6668C5.17339 36.6528 4.48845 35.5935 4.37964 34.148C4.31686 33.3223 4.15503 32.5223 3.98413 31.6745C3.83137 30.9179 3.67349 30.135 3.59351 29.3356C3.24288 25.8256 3.0557 21.6761 4.32803 17.5112C4.39964 17.2761 4.47638 17.0413 4.55752 16.8074C5.07975 15.2979 5.66032 14.1519 6.38532 13.2009C8.26359 10.7353 11.5113 9.65551 16.3139 9.90985C17.9989 9.99821 20.685 10.3649 22.3008 10.7281C23.7968 11.0636 25.3486 11.1831 26.9129 11.082C29.203 10.9336 31.819 10.2765 33.2748 9.48362C34.1265 9.02022 35.1403 9.14647 35.8569 9.80705C36.5575 10.4525 36.763 11.4293 36.3796 12.2954C35.8697 13.4482 34.7852 14.8531 33.1553 16.4709C32.7014 16.922 32.108 17.521 31.5458 18.1492C30.0459 19.827 24.603 25.5807 17.5351 29.1783C16.1135 29.9017 14.6824 30.4 13.2808 30.6583C11.8364 30.9243 9.877 31.7432 8.74093 34.1288C8.70768 34.1983 8.6821 34.3011 8.64699 34.4199C8.45028 35.0937 7.99086 36.6669 6.06866 36.6669L6.06836 36.6673ZM5.39057 17.8357C4.17569 21.8129 4.35938 25.825 4.69955 29.225C4.77396 29.9695 4.92626 30.7245 5.07343 31.4551C5.2434 32.2984 5.41965 33.1701 5.48731 34.0646C5.55846 35.0039 5.9163 35.5078 6.05348 35.5601C7.07122 35.5578 7.33789 34.939 7.58062 34.1079C7.63178 33.9323 7.67619 33.7807 7.7378 33.6507C9.14542 30.6936 11.6889 29.8219 13.0793 29.5652C14.3754 29.3257 15.7054 28.8625 17.0314 28.188C23.9273 24.6779 29.2511 19.0499 30.7183 17.4088C31.3001 16.759 31.9083 16.1449 32.3734 15.6834C33.9045 14.1634 34.9106 12.8722 35.3644 11.8469C35.5923 11.3326 35.3796 10.8784 35.105 10.6253C34.8171 10.3602 34.3256 10.1782 33.8066 10.4609C31.95 11.4714 29.0429 12.0587 26.9852 12.192C25.3146 12.2987 23.657 12.172 22.058 11.8132C20.492 11.4616 17.8893 11.1059 16.2558 11.0203C11.7848 10.7843 8.93022 11.6937 7.2695 13.8754C6.61843 14.7299 6.09064 15.7776 5.60843 17.172C5.53077 17.392 5.4587 17.6135 5.3908 17.8358L5.39057 17.8357Z" fill="url(#paint0_linear_18_4473)" stroke="url(#paint1_linear_18_4473)" stroke-width="0.5"/>
<path d="M21.0175 9.44404C20.7108 9.44404 20.462 9.19525 20.462 8.88857C20.462 7.35702 19.2159 6.11095 17.6844 6.11095C17.3777 6.11095 17.1289 5.86216 17.1289 5.55548C17.1289 5.24879 17.3777 5 17.6844 5C19.8288 5 21.5732 6.74434 21.5732 8.88881C21.5732 9.19526 21.3242 9.44405 21.0175 9.44405L21.0175 9.44404Z" fill="url(#paint2_linear_18_4473)" stroke="url(#paint3_linear_18_4473)" stroke-width="0.5"/>
<path d="M23.2391 9.44404C22.9324 9.44404 22.6836 9.19525 22.6836 8.88857C22.6836 8.58188 22.9324 8.33309 23.2391 8.33309C24.7706 8.33309 26.0167 7.08702 26.0167 5.55548C26.0167 5.24879 26.2655 5 26.5722 5C26.8788 5 27.1276 5.24879 27.1276 5.55548C27.1281 7.6997 25.3831 9.44404 23.2391 9.44404Z" fill="url(#paint4_linear_18_4473)" stroke="url(#paint5_linear_18_4473)" stroke-width="0.5"/>
<path d="M23.2389 25.555C23.1077 25.555 22.9754 25.5089 22.8701 25.415C22.6406 25.2111 22.6201 24.86 22.8241 24.6305C26.8989 20.0462 24.0289 16.0549 23.9052 15.887C23.723 15.641 23.7736 15.2932 24.0192 15.1104C24.2647 14.9272 24.6114 14.9772 24.7953 15.222C24.8314 15.2697 28.347 20.0909 23.6548 25.369C23.5444 25.492 23.3923 25.5548 23.2389 25.5548L23.2389 25.555Z" fill="url(#paint6_linear_18_4473)" stroke="url(#paint7_linear_18_4473)" stroke-width="0.5"/>
<path d="M23.2385 12.0213C23.2097 12.0213 23.1813 12.019 23.1525 12.0146C22.7858 11.9569 22.4198 11.8918 22.0564 11.8102C21.7202 11.7346 21.3303 11.6598 20.9192 11.587C20.6542 11.5403 20.4609 11.3091 20.4609 11.0404V4.9987C20.4609 4.07977 21.2087 3.33203 22.1276 3.33203C23.0465 3.33203 23.7943 4.07977 23.7943 4.9987V11.466C23.7943 11.6282 23.7231 11.7826 23.5999 11.8882C23.498 11.9747 23.3697 12.0214 23.2386 12.0214L23.2385 12.0213ZM22.3003 10.7262C22.4275 10.7546 22.5554 10.7813 22.683 10.8062V4.99871C22.683 4.69249 22.4342 4.44324 22.1276 4.44324C21.8209 4.44324 21.5721 4.69273 21.5721 4.99871V10.577C21.8313 10.6258 22.0769 10.6758 22.3003 10.7263L22.3003 10.7262Z" fill="url(#paint8_linear_18_4473)" stroke="url(#paint9_linear_18_4473)" stroke-width="0.2"/>
<path d="M19.3503 36.664C18.4313 36.664 17.6836 35.9163 17.6836 34.9974L17.6838 28.1694C17.6838 27.9662 17.7943 27.7795 17.9726 27.6823C18.6931 27.2884 19.4305 26.8522 20.1636 26.3874C20.3348 26.2786 20.5515 26.2718 20.7291 26.3697C20.907 26.4676 21.0169 26.6541 21.0169 26.8564V34.9975C21.0169 35.9164 20.2692 36.6641 19.3503 36.6641L19.3503 36.664ZM18.7948 28.4968V34.9974C18.7948 35.3036 19.0436 35.5528 19.3503 35.5528C19.6569 35.5528 19.9057 35.3034 19.9057 34.9974L19.906 27.8521C19.5337 28.076 19.1626 28.2916 18.7948 28.4971L18.7948 28.4968Z" fill="url(#paint10_linear_18_4473)" stroke="url(#paint11_linear_18_4473)" stroke-width="0.2"/>
<path d="M10.9757 11.4455C10.7962 11.4455 10.6242 11.3583 10.5186 11.2055C9.99613 10.4489 9.14466 9.99739 8.23972 9.99739H7.68424C6.76532 9.99739 6.01758 9.24966 6.01758 8.33073C6.01758 7.4118 6.76532 6.66406 7.68424 6.66406H8.23972C10.633 6.66406 12.8179 8.07728 13.8057 10.265C13.8801 10.4294 13.8696 10.6194 13.7785 10.7745C13.6873 10.93 13.5262 11.0316 13.3469 11.0472C12.542 11.116 11.7937 11.2439 11.1225 11.426C11.0734 11.4394 11.0246 11.4455 10.9757 11.4455L10.9757 11.4455ZM7.68399 7.77503C7.3773 7.77503 7.12851 8.02451 7.12851 8.3305C7.12851 8.63672 7.3773 8.88598 7.68399 8.88598H8.23946C9.37881 8.88598 10.4567 9.39426 11.1933 10.2615C11.5816 10.1692 11.9899 10.0932 12.4145 10.0336C11.4996 8.64109 9.93291 7.77502 8.2397 7.77502L7.68399 7.77503Z" fill="url(#paint12_linear_18_4473)" stroke="url(#paint13_linear_18_4473)" stroke-width="0.2"/>
<path d="M29.3507 29.4431H28.2395C25.6323 29.4431 23.3106 27.7843 22.4636 25.3148C22.3848 25.0849 22.4648 24.8298 22.6608 24.6865C23.2942 24.2227 23.9375 23.7272 24.573 23.2133C24.7318 23.085 24.9497 23.0538 25.138 23.1333C25.3268 23.2129 25.4563 23.3893 25.4752 23.594C25.6091 25.029 26.7975 26.1104 28.2395 26.1104H29.3507C30.2696 26.1104 31.0174 26.8582 31.0174 27.7771C31.0174 28.6958 30.2696 29.4431 29.3507 29.4431L29.3507 29.4431ZM23.6597 25.3292C24.4486 27.1403 26.2413 28.3319 28.2395 28.3319H29.3507C29.6574 28.3319 29.9062 28.0824 29.9062 27.7764C29.9062 27.4702 29.6574 27.2209 29.3507 27.2209H28.2395C26.5484 27.2209 25.1061 26.1581 24.5723 24.6326C24.2679 24.8705 23.9629 25.1032 23.6597 25.3292Z" fill="url(#paint14_linear_18_4473)" stroke="url(#paint15_linear_18_4473)" stroke-width="0.2"/>
<defs>
<linearGradient id="paint0_linear_18_4473" x1="-0.274997" y1="36.6673" x2="40.8593" y2="33.0291" gradientUnits="userSpaceOnUse">
<stop stop-color="#6B4DE0"/>
<stop offset="0.544792" stop-color="#9C42E3"/>
<stop offset="1" stop-color="#C339E5"/>
</linearGradient>
<linearGradient id="paint1_linear_18_4473" x1="-0.274997" y1="36.6673" x2="40.8593" y2="33.0291" gradientUnits="userSpaceOnUse">
<stop stop-color="#6B4DE0"/>
<stop offset="0.544792" stop-color="#9C42E3"/>
<stop offset="1" stop-color="#C339E5"/>
</linearGradient>
<linearGradient id="paint2_linear_18_4473" x1="16.6463" y1="9.44405" x2="22.1603" y2="9.0411" gradientUnits="userSpaceOnUse">
<stop stop-color="#6B4DE0"/>
<stop offset="0.544792" stop-color="#9C42E3"/>
<stop offset="1" stop-color="#C339E5"/>
</linearGradient>
<linearGradient id="paint3_linear_18_4473" x1="16.6463" y1="9.44405" x2="22.1603" y2="9.0411" gradientUnits="userSpaceOnUse">
<stop stop-color="#6B4DE0"/>
<stop offset="0.544792" stop-color="#9C42E3"/>
<stop offset="1" stop-color="#C339E5"/>
</linearGradient>
<linearGradient id="paint4_linear_18_4473" x1="22.201" y1="9.44404" x2="27.7147" y2="9.04113" gradientUnits="userSpaceOnUse">
<stop stop-color="#6B4DE0"/>
<stop offset="0.544792" stop-color="#9C42E3"/>
<stop offset="1" stop-color="#C339E5"/>
</linearGradient>
<linearGradient id="paint5_linear_18_4473" x1="22.201" y1="9.44404" x2="27.7147" y2="9.04113" gradientUnits="userSpaceOnUse">
<stop stop-color="#6B4DE0"/>
<stop offset="0.544792" stop-color="#9C42E3"/>
<stop offset="1" stop-color="#C339E5"/>
</linearGradient>
<linearGradient id="paint6_linear_18_4473" x1="22.3133" y1="25.555" x2="26.5644" y2="25.4546" gradientUnits="userSpaceOnUse">
<stop stop-color="#6B4DE0"/>
<stop offset="0.544792" stop-color="#9C42E3"/>
<stop offset="1" stop-color="#C339E5"/>
</linearGradient>
<linearGradient id="paint7_linear_18_4473" x1="22.3133" y1="25.555" x2="26.5644" y2="25.4546" gradientUnits="userSpaceOnUse">
<stop stop-color="#6B4DE0"/>
<stop offset="0.544792" stop-color="#9C42E3"/>
<stop offset="1" stop-color="#C339E5"/>
</linearGradient>
<linearGradient id="paint8_linear_18_4473" x1="20.099" y1="12.0214" x2="24.2534" y2="11.905" gradientUnits="userSpaceOnUse">
<stop stop-color="#6B4DE0"/>
<stop offset="0.544792" stop-color="#9C42E3"/>
<stop offset="1" stop-color="#C339E5"/>
</linearGradient>
<linearGradient id="paint9_linear_18_4473" x1="20.099" y1="12.0214" x2="24.2534" y2="11.905" gradientUnits="userSpaceOnUse">
<stop stop-color="#6B4DE0"/>
<stop offset="0.544792" stop-color="#9C42E3"/>
<stop offset="1" stop-color="#C339E5"/>
</linearGradient>
<linearGradient id="paint10_linear_18_4473" x1="17.3216" y1="36.6641" x2="21.4771" y2="36.5664" gradientUnits="userSpaceOnUse">
<stop stop-color="#6B4DE0"/>
<stop offset="0.544792" stop-color="#9C42E3"/>
<stop offset="1" stop-color="#C339E5"/>
</linearGradient>
<linearGradient id="paint11_linear_18_4473" x1="17.3216" y1="36.6641" x2="21.4771" y2="36.5664" gradientUnits="userSpaceOnUse">
<stop stop-color="#6B4DE0"/>
<stop offset="0.544792" stop-color="#9C42E3"/>
<stop offset="1" stop-color="#C339E5"/>
</linearGradient>
<linearGradient id="paint12_linear_18_4473" x1="5.16655" y1="11.4455" x2="14.804" y2="10.2911" gradientUnits="userSpaceOnUse">
<stop stop-color="#6B4DE0"/>
<stop offset="0.544792" stop-color="#9C42E3"/>
<stop offset="1" stop-color="#C339E5"/>
</linearGradient>
<linearGradient id="paint13_linear_18_4473" x1="5.16655" y1="11.4455" x2="14.804" y2="10.2911" gradientUnits="userSpaceOnUse">
<stop stop-color="#6B4DE0"/>
<stop offset="0.544792" stop-color="#9C42E3"/>
<stop offset="1" stop-color="#C339E5"/>
</linearGradient>
<linearGradient id="paint14_linear_18_4473" x1="21.5015" y1="29.4431" x2="32.1048" y2="28.3962" gradientUnits="userSpaceOnUse">
<stop stop-color="#6B4DE0"/>
<stop offset="0.544792" stop-color="#9C42E3"/>
<stop offset="1" stop-color="#C339E5"/>
</linearGradient>
<linearGradient id="paint15_linear_18_4473" x1="21.5015" y1="29.4431" x2="32.1048" y2="28.3962" gradientUnits="userSpaceOnUse">
<stop stop-color="#6B4DE0"/>
<stop offset="0.544792" stop-color="#9C42E3"/>
<stop offset="1" stop-color="#C339E5"/>
</linearGradient>
</defs>
</svg>
