<svg width="40" height="40" viewBox="0 0 40 40" fill="none" xmlns="http://www.w3.org/2000/svg">
<path fill-rule="evenodd" clip-rule="evenodd" d="M31.5668 3.33203H9.37199C8.1802 3.33203 7.19362 4.31854 7.19362 5.51041L7.19336 14.9286L7.19336 20.6839L7.19336 34.487C7.19336 35.6788 8.17987 36.6654 9.37174 36.6654H17.6981H20.2228L31.5668 36.6653C32.7586 36.6653 33.7451 35.6788 33.7451 34.4869V5.51041C33.7041 4.31861 32.7589 3.33203 31.5668 3.33203ZM31.5258 34.8981C31.7726 34.8981 31.9369 34.6925 31.9369 34.4869L31.978 34.4866V5.51012C31.978 5.26327 31.7724 5.09899 31.5669 5.09899H9.3721C9.12525 5.09899 8.96096 5.30456 8.96096 5.51012V19.0638V24.14V34.4866C8.96096 34.7335 9.16653 34.8978 9.3721 34.8978L16.1882 34.8979L18.7422 34.8979L31.5258 34.8981Z" fill="#9E62B3" stroke="#9E62B3" stroke-width="0.4"/>
<path d="M27.0451 24.1719H13.8515C13.3584 24.1719 12.9473 24.583 12.9473 25.0761C12.9473 25.5692 13.3584 25.9803 13.8515 25.9803L27.0451 25.98C27.5382 25.98 27.9493 25.5689 27.9493 25.0758C27.9493 24.5827 27.5382 24.1719 27.0451 24.1719V24.1719Z" fill="#9E62B3" stroke="#9E62B3" stroke-width="0.4"/>
<path d="M27.0451 29.5117H13.8515C13.3584 29.5117 12.9473 29.9229 12.9473 30.416C12.9473 30.9091 13.3584 31.3202 13.8515 31.3202H27.0451C27.5382 31.3202 27.9493 30.9091 27.9493 30.416C27.9493 29.9229 27.5382 29.5117 27.0451 29.5117Z" fill="#9E62B3" stroke="#9E62B3" stroke-width="0.4"/>
<path d="M27.0451 18.8672H13.8515C13.3584 18.8672 12.9473 19.2783 12.9473 19.7714C12.9473 20.2645 13.3584 20.6757 13.8515 20.6757H27.0451C27.5382 20.6757 27.9493 20.2645 27.9493 19.7714C27.9493 19.237 27.5382 18.8672 27.0451 18.8672Z" fill="#9E62B3" stroke="#9E62B3" stroke-width="0.4"/>
<path d="M15.4148 15.4559H17.0177C17.2233 15.4559 17.3466 15.2916 17.3466 15.1271V12.5788C17.3466 12.3733 17.1823 12.25 17.0177 12.25H15.4148C15.2092 12.25 15.0859 12.4143 15.0859 12.5788V15.1271C15.0859 15.2916 15.2502 15.4559 15.4148 15.4559Z" fill="#9E62B3" stroke="#9E62B3" stroke-width="0.4"/>
<path d="M19.4011 15.4577H21.0041C21.2096 15.4577 21.3329 15.2935 21.3329 15.1289V10.7312C21.3329 10.5256 21.1686 10.4023 21.0041 10.4023H19.4011C19.1956 10.4023 19.0723 10.5666 19.0723 10.7312V15.0879C19.0723 15.2934 19.2365 15.4577 19.4011 15.4577V15.4577Z" fill="#9E62B3" stroke="#9E62B3" stroke-width="0.4"/>
<path d="M23.3874 15.4557H24.9904C25.196 15.4557 25.3192 15.2914 25.3192 15.1269V8.96166C25.3192 8.79738 25.155 8.63281 24.9904 8.63281H23.3874C23.1819 8.63281 23.0586 8.79709 23.0586 8.96166V15.1269C23.0586 15.2914 23.2229 15.4557 23.3874 15.4557Z" fill="#9E62B3" stroke="#9E62B3" stroke-width="0.4"/>
</svg>
