<svg width="20" height="20" viewBox="0 0 20 20" fill="none" xmlns="http://www.w3.org/2000/svg">
<circle cx="10" cy="10" r="10" fill="#C6CEF7"/>
<g clip-path="url(#clip0_105_6801)">
<path d="M7.03344 16.5005C13.0697 16.5005 16.3722 11.4983 16.3722 7.16173C16.3722 7.0211 16.3691 6.87735 16.3628 6.73673C17.0052 6.27213 17.5597 5.69666 18 5.03735C17.4017 5.30355 16.7664 5.47741 16.1159 5.55298C16.8009 5.14243 17.3137 4.49747 17.5594 3.73767C16.915 4.11953 16.2104 4.3889 15.4756 4.53423C14.9806 4.0082 14.326 3.6599 13.6131 3.54319C12.9003 3.42648 12.1688 3.54786 11.5318 3.88855C10.8949 4.22925 10.3879 4.77029 10.0892 5.42803C9.7906 6.08577 9.71695 6.82356 9.87969 7.52735C8.575 7.46188 7.29862 7.12296 6.13332 6.53255C4.96802 5.94215 3.9398 5.11345 3.11531 4.10017C2.69627 4.82265 2.56804 5.67758 2.75669 6.49122C2.94534 7.30485 3.43671 8.01612 4.13094 8.48048C3.60975 8.46393 3.09998 8.32361 2.64375 8.0711V8.11173C2.64328 8.86992 2.9054 9.60488 3.38554 10.1917C3.86568 10.7785 4.53422 11.1809 5.2775 11.3305C4.7947 11.4626 4.28799 11.4818 3.79656 11.3867C4.0063 12.0388 4.41438 12.6091 4.96385 13.018C5.51331 13.427 6.17675 13.6542 6.86156 13.668C5.69895 14.5812 4.26278 15.0766 2.78438 15.0742C2.52219 15.0738 2.26027 15.0578 2 15.0261C3.5019 15.9897 5.24902 16.5014 7.03344 16.5005Z" fill="#4D1C8C"/>
</g>
<defs>
<clipPath id="clip0_105_6801">
<rect width="16" height="16" fill="white" transform="translate(2 2)"/>
</clipPath>
</defs>
</svg>
