<svg width="13" height="13" viewBox="0 0 13 13" fill="none" xmlns="http://www.w3.org/2000/svg">
<path d="M6.25 0.5C6.4572 0.5 6.65591 0.58231 6.80243 0.728823C6.94894 0.875336 7.03125 1.07405 7.03125 1.28125V5.96875H11.7188C11.926 5.96875 12.1247 6.05106 12.2712 6.19757C12.4177 6.34409 12.5 6.5428 12.5 6.75C12.5 6.9572 12.4177 7.15591 12.2712 7.30243C12.1247 7.44894 11.926 7.53125 11.7188 7.53125H7.03125V12.2188C7.03125 12.426 6.94894 12.6247 6.80243 12.7712C6.65591 12.9177 6.4572 13 6.25 13C6.0428 13 5.84409 12.9177 5.69757 12.7712C5.55106 12.6247 5.46875 12.426 5.46875 12.2188V7.53125H0.78125C0.57405 7.53125 0.375336 7.44894 0.228823 7.30243C0.0823102 7.15591 0 6.9572 0 6.75C0 6.5428 0.0823102 6.34409 0.228823 6.19757C0.375336 6.05106 0.57405 5.96875 0.78125 5.96875H5.46875V1.28125C5.46875 1.07405 5.55106 0.875336 5.69757 0.728823C5.84409 0.58231 6.0428 0.5 6.25 0.5Z" fill="#6B4DE0"/>
</svg>
