<svg width="40" height="40" viewBox="0 0 40 40" fill="none" xmlns="http://www.w3.org/2000/svg">
<path d="M22.7787 14.8139C21.4565 14.8139 20.2045 15.1066 19.075 15.6252V10.7064C20.1231 10.5287 20.9268 9.61748 20.9268 8.51742V5.55439C20.9268 4.32853 19.9307 3.33203 18.7045 3.33203H10.5563C9.33048 3.33203 8.33398 4.3282 8.33398 5.55439V8.51742C8.33398 9.61748 9.13769 10.5284 10.1858 10.7064L10.1861 32.221C10.1861 34.6727 12.1788 36.6654 14.6305 36.6654C17.0822 36.6654 19.0749 34.6727 19.0749 32.221V31.7802C20.2043 32.2987 21.4563 32.5915 22.7786 32.5915C27.6787 32.5915 31.6674 28.6026 31.6674 23.7026C31.6674 18.8022 27.6788 14.8137 22.7786 14.8137L22.7787 14.8139ZM17.2231 4.81391H18.7045C19.1119 4.81391 19.4452 5.14718 19.4452 5.55458V8.51761C19.4452 8.92503 19.1119 9.25829 18.7045 9.25829H17.2231V4.81391ZM17.5936 10.74V16.488C17.3417 16.6693 17.1009 16.8621 16.8713 17.0657C15.0713 15.9323 12.7859 15.4546 11.6676 15.2768V10.7399L17.5936 10.74ZM13.5194 4.81391H15.7418V9.25829H13.5194V4.81391ZM10.5564 9.25855C10.149 9.25855 9.8157 8.92528 9.8157 8.51788V5.55485C9.8157 5.14743 10.149 4.81417 10.5564 4.81417H12.0377V9.25855H10.5564ZM17.5934 32.2215C17.5934 33.8548 16.2637 35.1845 14.6304 35.1845C12.9971 35.1845 11.6674 33.8549 11.6674 32.2215V16.7771C12.8266 16.977 14.5007 17.4103 15.8304 18.1696C14.6156 19.6918 13.8896 21.6139 13.8896 23.7029C13.8896 26.6695 15.3527 29.2993 17.5933 30.9179L17.5934 32.2215ZM22.7785 31.1103C18.6932 31.1103 15.3711 27.7882 15.3711 23.7029C15.3711 19.6176 18.6932 16.2955 22.7785 16.2955C26.8638 16.2955 30.1859 19.6176 30.1859 23.7029C30.1859 27.7882 26.8638 31.1103 22.7785 31.1103Z" fill="url(#paint0_linear_18_4474)" stroke="url(#paint1_linear_18_4474)" stroke-width="0.5"/>
<path d="M23.3672 18.8084C23.2267 18.6267 23.0081 18.5195 22.7785 18.5195C22.5488 18.5195 22.3302 18.627 22.1897 18.8084L19.5638 22.2344C18.3046 23.8676 18.4491 26.2086 19.8935 27.6788C20.6637 28.46 21.6895 28.8897 22.7785 28.8897C23.8674 28.8897 24.8934 28.4601 25.6637 27.6786C27.1082 26.2084 27.2526 23.8713 25.9934 22.2342L23.3672 18.8084ZM24.6081 26.6377C24.1193 27.134 23.4672 27.4081 22.7785 27.4081C22.0897 27.4081 21.4377 27.134 20.9489 26.6377C20.0193 25.6932 19.9266 24.1896 20.7378 23.134L22.7785 20.4748L24.8191 23.134C25.6304 24.1896 25.5376 25.6932 24.6081 26.6377H24.6081Z" fill="url(#paint2_linear_18_4474)" stroke="url(#paint3_linear_18_4474)" stroke-width="0.5"/>
<defs>
<linearGradient id="paint0_linear_18_4474" x1="5.8003" y1="36.6654" x2="34.8286" y2="35.1805" gradientUnits="userSpaceOnUse">
<stop stop-color="#6B4DE0"/>
<stop offset="0.544792" stop-color="#9C42E3"/>
<stop offset="1" stop-color="#C339E5"/>
</linearGradient>
<linearGradient id="paint1_linear_18_4474" x1="5.8003" y1="36.6654" x2="34.8286" y2="35.1805" gradientUnits="userSpaceOnUse">
<stop stop-color="#6B4DE0"/>
<stop offset="0.544792" stop-color="#9C42E3"/>
<stop offset="1" stop-color="#C339E5"/>
</linearGradient>
<linearGradient id="paint2_linear_18_4474" x1="17.8228" y1="28.8897" x2="27.9466" y2="28.3088" gradientUnits="userSpaceOnUse">
<stop stop-color="#6B4DE0"/>
<stop offset="0.544792" stop-color="#9C42E3"/>
<stop offset="1" stop-color="#C339E5"/>
</linearGradient>
<linearGradient id="paint3_linear_18_4474" x1="17.8228" y1="28.8897" x2="27.9466" y2="28.3088" gradientUnits="userSpaceOnUse">
<stop stop-color="#6B4DE0"/>
<stop offset="0.544792" stop-color="#9C42E3"/>
<stop offset="1" stop-color="#C339E5"/>
</linearGradient>
</defs>
</svg>
