<svg width="40" height="40" viewBox="0 0 40 40" fill="none" xmlns="http://www.w3.org/2000/svg">
<mask id="path-1-inside-1_18_4373" fill="white">
<path fill-rule="evenodd" clip-rule="evenodd" d="M20.0008 3.33417C19.5374 3.33417 19.0727 3.50914 18.7254 3.85674C18.0305 4.55167 18.0305 5.71056 18.7254 6.40549C18.7585 6.43652 18.7974 6.46234 18.8326 6.49207V8.88328C16.6252 9.11197 14.6084 9.98916 12.9708 11.3178L11.28 9.62701C11.2834 9.58033 11.2959 9.53574 11.2959 9.48802C11.2959 8.50517 10.4669 7.68534 9.48431 7.68534C8.50146 7.68534 7.68163 8.50517 7.68163 9.48802C7.68163 10.4709 8.50146 11.2884 9.48431 11.2884C9.53021 11.2884 9.57375 11.2795 9.61887 11.2751L11.3188 12.9703C9.98916 14.6093 9.11172 16.6276 8.88195 18.8365H6.49982C6.468 18.7969 6.44167 18.7581 6.40621 18.7226C5.71127 18.0277 4.55239 18.0277 3.85745 18.7226C3.16252 19.4175 3.15805 20.5832 3.85276 21.2781C4.54769 21.973 5.71099 21.9663 6.40592 21.2692C6.43643 21.2382 6.45781 21.2035 6.48571 21.1712H8.88139C9.11296 23.3752 9.99148 25.3901 11.3183 27.0262L9.61831 28.7214C9.5732 28.7178 9.52965 28.7081 9.48376 28.7081C8.50091 28.7081 7.68107 29.528 7.68107 30.5106C7.68107 31.4934 8.50091 32.3221 9.48376 32.3221C10.4666 32.3221 11.2953 31.4931 11.2953 30.5106C11.2953 30.4634 11.2831 30.4177 11.2794 30.3716L12.9726 28.6784C14.6099 30.0065 16.6251 30.8869 18.8319 31.1153V33.5021C18.7967 33.5331 18.7579 33.5556 18.7248 33.5887C18.0298 34.2836 18.023 35.4492 18.7177 36.1442C19.4127 36.8391 20.5851 36.8391 21.28 36.1442C21.975 35.4492 21.9682 34.2836 21.273 33.5887C21.2407 33.5576 21.2023 33.5334 21.1682 33.5044V31.1109C23.3717 30.8778 25.3858 29.9987 27.0208 28.6694L28.7208 30.3716C28.7174 30.4183 28.7072 30.4634 28.7072 30.5106C28.7072 31.4935 29.5338 32.3222 30.5166 32.3222C31.4994 32.3222 32.3193 31.4932 32.3193 30.5106C32.3193 29.5278 31.4995 28.7079 30.5166 28.7079C30.4692 28.7079 30.4241 28.7168 30.3774 28.7212L28.6707 27.0146C29.9938 25.3808 30.8695 23.3701 31.1008 21.1711H33.5102C33.5387 21.2021 33.5611 21.2404 33.5924 21.2712C34.2873 21.9661 35.4506 21.9706 36.1455 21.2756C36.8405 20.5807 36.8361 19.4151 36.1409 18.7201C35.4459 18.0252 34.287 18.0252 33.5921 18.7201C33.5566 18.7553 33.5303 18.7965 33.4985 18.8341L31.1007 18.8346C30.8713 16.6308 29.9967 14.6164 28.6707 12.9796L30.3774 11.2729C30.4241 11.2763 30.4692 11.2862 30.5166 11.2862C31.4995 11.2862 32.3193 10.4687 32.3193 9.48587C32.3193 8.50302 31.4995 7.68319 30.5166 7.68319C29.5338 7.68319 28.7072 8.50302 28.7072 9.48587C28.7072 9.53359 28.7166 9.57818 28.7208 9.62486L27.0208 11.3248C25.3858 9.99542 23.3716 9.11898 21.1682 8.8856V6.48758C21.2023 6.45655 21.2406 6.43543 21.273 6.40336C21.9679 5.70843 21.9679 4.54954 21.273 3.85461C20.9256 3.50701 20.4633 3.33203 19.9999 3.33203L20.0008 3.33417ZM19.969 11.16V11.1603C19.9909 11.1616 20.013 11.1623 20.0349 11.1626C22.3596 11.1759 24.4627 12.0813 26.0312 13.5515C26.1324 13.7241 26.2761 13.868 26.449 13.9692C27.8581 15.479 28.7391 17.4833 28.8128 19.7008C28.7596 19.8988 28.7596 20.1074 28.8128 20.3056C28.7367 22.5448 27.838 24.5644 26.4033 26.0784V26.0782C26.2737 26.1642 26.1629 26.2751 26.0768 26.4044C24.5274 27.8772 22.4449 28.793 20.1399 28.8321C20.087 28.8243 20.0336 28.8199 19.9801 28.8191C19.9366 28.8209 19.8933 28.8253 19.8502 28.8321C17.5315 28.7969 15.4407 27.8751 13.8881 26.3906V26.3908C13.8133 26.286 13.7215 26.1942 13.6167 26.1194C12.0956 24.5324 11.1568 22.3816 11.1568 20C11.1568 17.6538 12.0692 15.531 13.5504 13.9513V13.951C13.7162 13.8519 13.8549 13.7129 13.9543 13.5471C15.527 12.0735 17.6348 11.1652 19.9689 11.1603L19.969 11.16ZM19.4876 12.1159V12.1162C19.2779 12.1157 19.0719 12.1715 18.8912 12.2779C18.7105 12.3843 18.5619 12.5373 18.4607 12.7209L17.8742 13.7295V13.7293C17.7193 13.9984 17.6779 14.3181 17.7587 14.6177C17.8395 14.9174 18.0364 15.1727 18.3058 15.327C18.5749 15.4817 18.8946 15.5226 19.1942 15.4412C19.4939 15.3599 19.7486 15.1627 19.9027 14.8931L20.4892 13.8848C20.6313 13.6472 20.6845 13.3671 20.6394 13.0941C20.5943 12.8211 20.4537 12.5731 20.2428 12.394C20.0318 12.2148 19.7643 12.1165 19.4876 12.1162L19.4876 12.1159ZM23.7315 13.8683L23.7313 13.8686C23.4011 13.8683 23.0861 14.0078 22.8645 14.2527C22.6426 14.4973 22.5349 14.8245 22.5678 15.1531L22.6614 16.3169C22.6877 16.6259 22.8356 16.9117 23.0726 17.1114C23.3099 17.3114 23.6166 17.409 23.9256 17.3826C24.2346 17.3563 24.5204 17.2082 24.7201 16.9711C24.9198 16.7338 25.0174 16.4272 24.991 16.1182L24.8953 14.9544H24.8951C24.8742 14.66 24.7428 14.3841 24.5269 14.1827C24.3109 13.9812 24.0267 13.869 23.7315 13.8685L23.7315 13.8683ZM14.0459 15.7552V15.7555C13.6352 15.7847 13.2701 16.0275 13.0845 16.3946C12.8988 16.762 12.9197 17.1998 13.1397 17.5477C13.3596 17.8956 13.7463 18.1024 14.1575 18.0919H15.3328C15.7437 18.0828 16.1197 17.858 16.3226 17.5005C16.5255 17.1427 16.5255 16.7049 16.3226 16.3472C16.1197 15.9896 15.7437 15.7649 15.3328 15.7555H14.1575C14.1205 15.7539 14.0832 15.7539 14.0459 15.7555L14.0459 15.7552ZM26.5246 17.8429L26.5244 17.8434C26.1426 17.864 25.7947 18.07 25.5934 18.3955L24.9637 19.3859H24.964C24.7968 19.6479 24.7407 19.9655 24.8085 20.269C24.8761 20.5723 25.0617 20.8362 25.3243 21.0023C25.5872 21.1687 25.9051 21.2234 26.2081 21.1546C26.5113 21.0857 26.7744 20.8993 26.9398 20.6362L27.5695 19.646V19.6458C27.7268 19.4033 27.7888 19.1109 27.7432 18.8257C27.6976 18.5401 27.5476 18.2817 27.3226 18.1002C27.0975 17.9187 26.813 17.8272 26.5244 17.8434L26.5246 17.8429ZM19.7822 18.3175L19.782 18.318C19.4545 18.3102 19.1387 18.4403 18.9115 18.6766C18.6847 18.9131 18.5673 19.2338 18.5882 19.5611C18.6093 19.8881 18.7668 20.1911 19.0224 20.3966L19.91 21.145H19.9098C20.1463 21.3461 20.4532 21.4446 20.7624 21.4193C21.0717 21.3938 21.3583 21.2465 21.5588 21.0094C21.7596 20.7726 21.8577 20.4657 21.8316 20.1565C21.8055 19.8469 21.6577 19.5609 21.4204 19.3606L20.5236 18.6007V18.601C20.317 18.4229 20.0547 18.3227 19.782 18.3178L19.7822 18.3175ZM14.3221 20.4028L14.3218 20.4033C13.9095 20.4096 13.5311 20.6328 13.3259 20.9906C13.121 21.3484 13.1197 21.7875 13.3225 22.1465L13.884 23.1735H13.8837C14.0227 23.4613 14.2733 23.6799 14.5776 23.7779C14.8817 23.876 15.2129 23.8452 15.4937 23.6929C15.7746 23.5404 15.9808 23.2793 16.0643 22.9709C16.1475 22.6624 16.1011 22.333 15.9352 22.06L15.3738 21.0333V21.0331C15.2742 20.8409 15.1229 20.6803 14.9373 20.5692C14.7513 20.4581 14.5385 20.4005 14.3218 20.4033L14.3221 20.4028ZM23.6452 22.0412L23.645 22.0417C23.2929 22.049 22.963 22.2149 22.7469 22.4929C22.5307 22.7708 22.4517 23.1315 22.5315 23.4747L22.7732 24.6132H22.7735C22.8262 24.9264 23.004 25.2046 23.2661 25.3837C23.5281 25.5632 23.852 25.6278 24.1631 25.5634C24.474 25.4987 24.7452 25.3105 24.9144 25.0416C25.0837 24.7728 25.1361 24.4468 25.0597 24.1386L24.8179 22.991C24.766 22.7195 24.6198 22.4755 24.4051 22.3015C24.1905 22.1279 23.9212 22.0358 23.645 22.0418L23.6452 22.0412ZM19.0909 23.7365L19.0907 23.737C19.0502 23.7365 19.0098 23.7378 18.9697 23.7414C18.761 23.7605 18.5613 23.8353 18.3915 23.9581C18.2218 24.0812 18.088 24.2473 18.0046 24.4395L17.53 25.5097C17.3925 25.7939 17.3758 26.1217 17.4838 26.4184C17.5918 26.7152 17.8152 26.9554 18.1034 27.0847C18.3915 27.2138 18.7196 27.2211 19.0132 27.1045C19.3066 26.988 19.5402 26.7574 19.6609 26.4656L20.1423 25.3978H20.1426C20.3103 25.0372 20.2831 24.616 20.0703 24.2802C19.8576 23.944 19.4883 23.7393 19.0906 23.7367L19.0909 23.7365Z"/>
</mask>
<path fill-rule="evenodd" clip-rule="evenodd" d="M20.0008 3.33417C19.5374 3.33417 19.0727 3.50914 18.7254 3.85674C18.0305 4.55167 18.0305 5.71056 18.7254 6.40549C18.7585 6.43652 18.7974 6.46234 18.8326 6.49207V8.88328C16.6252 9.11197 14.6084 9.98916 12.9708 11.3178L11.28 9.62701C11.2834 9.58033 11.2959 9.53574 11.2959 9.48802C11.2959 8.50517 10.4669 7.68534 9.48431 7.68534C8.50146 7.68534 7.68163 8.50517 7.68163 9.48802C7.68163 10.4709 8.50146 11.2884 9.48431 11.2884C9.53021 11.2884 9.57375 11.2795 9.61887 11.2751L11.3188 12.9703C9.98916 14.6093 9.11172 16.6276 8.88195 18.8365H6.49982C6.468 18.7969 6.44167 18.7581 6.40621 18.7226C5.71127 18.0277 4.55239 18.0277 3.85745 18.7226C3.16252 19.4175 3.15805 20.5832 3.85276 21.2781C4.54769 21.973 5.71099 21.9663 6.40592 21.2692C6.43643 21.2382 6.45781 21.2035 6.48571 21.1712H8.88139C9.11296 23.3752 9.99148 25.3901 11.3183 27.0262L9.61831 28.7214C9.5732 28.7178 9.52965 28.7081 9.48376 28.7081C8.50091 28.7081 7.68107 29.528 7.68107 30.5106C7.68107 31.4934 8.50091 32.3221 9.48376 32.3221C10.4666 32.3221 11.2953 31.4931 11.2953 30.5106C11.2953 30.4634 11.2831 30.4177 11.2794 30.3716L12.9726 28.6784C14.6099 30.0065 16.6251 30.8869 18.8319 31.1153V33.5021C18.7967 33.5331 18.7579 33.5556 18.7248 33.5887C18.0298 34.2836 18.023 35.4492 18.7177 36.1442C19.4127 36.8391 20.5851 36.8391 21.28 36.1442C21.975 35.4492 21.9682 34.2836 21.273 33.5887C21.2407 33.5576 21.2023 33.5334 21.1682 33.5044V31.1109C23.3717 30.8778 25.3858 29.9987 27.0208 28.6694L28.7208 30.3716C28.7174 30.4183 28.7072 30.4634 28.7072 30.5106C28.7072 31.4935 29.5338 32.3222 30.5166 32.3222C31.4994 32.3222 32.3193 31.4932 32.3193 30.5106C32.3193 29.5278 31.4995 28.7079 30.5166 28.7079C30.4692 28.7079 30.4241 28.7168 30.3774 28.7212L28.6707 27.0146C29.9938 25.3808 30.8695 23.3701 31.1008 21.1711H33.5102C33.5387 21.2021 33.5611 21.2404 33.5924 21.2712C34.2873 21.9661 35.4506 21.9706 36.1455 21.2756C36.8405 20.5807 36.8361 19.4151 36.1409 18.7201C35.4459 18.0252 34.287 18.0252 33.5921 18.7201C33.5566 18.7553 33.5303 18.7965 33.4985 18.8341L31.1007 18.8346C30.8713 16.6308 29.9967 14.6164 28.6707 12.9796L30.3774 11.2729C30.4241 11.2763 30.4692 11.2862 30.5166 11.2862C31.4995 11.2862 32.3193 10.4687 32.3193 9.48587C32.3193 8.50302 31.4995 7.68319 30.5166 7.68319C29.5338 7.68319 28.7072 8.50302 28.7072 9.48587C28.7072 9.53359 28.7166 9.57818 28.7208 9.62486L27.0208 11.3248C25.3858 9.99542 23.3716 9.11898 21.1682 8.8856V6.48758C21.2023 6.45655 21.2406 6.43543 21.273 6.40336C21.9679 5.70843 21.9679 4.54954 21.273 3.85461C20.9256 3.50701 20.4633 3.33203 19.9999 3.33203L20.0008 3.33417ZM19.969 11.16V11.1603C19.9909 11.1616 20.013 11.1623 20.0349 11.1626C22.3596 11.1759 24.4627 12.0813 26.0312 13.5515C26.1324 13.7241 26.2761 13.868 26.449 13.9692C27.8581 15.479 28.7391 17.4833 28.8128 19.7008C28.7596 19.8988 28.7596 20.1074 28.8128 20.3056C28.7367 22.5448 27.838 24.5644 26.4033 26.0784V26.0782C26.2737 26.1642 26.1629 26.2751 26.0768 26.4044C24.5274 27.8772 22.4449 28.793 20.1399 28.8321C20.087 28.8243 20.0336 28.8199 19.9801 28.8191C19.9366 28.8209 19.8933 28.8253 19.8502 28.8321C17.5315 28.7969 15.4407 27.8751 13.8881 26.3906V26.3908C13.8133 26.286 13.7215 26.1942 13.6167 26.1194C12.0956 24.5324 11.1568 22.3816 11.1568 20C11.1568 17.6538 12.0692 15.531 13.5504 13.9513V13.951C13.7162 13.8519 13.8549 13.7129 13.9543 13.5471C15.527 12.0735 17.6348 11.1652 19.9689 11.1603L19.969 11.16ZM19.4876 12.1159V12.1162C19.2779 12.1157 19.0719 12.1715 18.8912 12.2779C18.7105 12.3843 18.5619 12.5373 18.4607 12.7209L17.8742 13.7295V13.7293C17.7193 13.9984 17.6779 14.3181 17.7587 14.6177C17.8395 14.9174 18.0364 15.1727 18.3058 15.327C18.5749 15.4817 18.8946 15.5226 19.1942 15.4412C19.4939 15.3599 19.7486 15.1627 19.9027 14.8931L20.4892 13.8848C20.6313 13.6472 20.6845 13.3671 20.6394 13.0941C20.5943 12.8211 20.4537 12.5731 20.2428 12.394C20.0318 12.2148 19.7643 12.1165 19.4876 12.1162L19.4876 12.1159ZM23.7315 13.8683L23.7313 13.8686C23.4011 13.8683 23.0861 14.0078 22.8645 14.2527C22.6426 14.4973 22.5349 14.8245 22.5678 15.1531L22.6614 16.3169C22.6877 16.6259 22.8356 16.9117 23.0726 17.1114C23.3099 17.3114 23.6166 17.409 23.9256 17.3826C24.2346 17.3563 24.5204 17.2082 24.7201 16.9711C24.9198 16.7338 25.0174 16.4272 24.991 16.1182L24.8953 14.9544H24.8951C24.8742 14.66 24.7428 14.3841 24.5269 14.1827C24.3109 13.9812 24.0267 13.869 23.7315 13.8685L23.7315 13.8683ZM14.0459 15.7552V15.7555C13.6352 15.7847 13.2701 16.0275 13.0845 16.3946C12.8988 16.762 12.9197 17.1998 13.1397 17.5477C13.3596 17.8956 13.7463 18.1024 14.1575 18.0919H15.3328C15.7437 18.0828 16.1197 17.858 16.3226 17.5005C16.5255 17.1427 16.5255 16.7049 16.3226 16.3472C16.1197 15.9896 15.7437 15.7649 15.3328 15.7555H14.1575C14.1205 15.7539 14.0832 15.7539 14.0459 15.7555L14.0459 15.7552ZM26.5246 17.8429L26.5244 17.8434C26.1426 17.864 25.7947 18.07 25.5934 18.3955L24.9637 19.3859H24.964C24.7968 19.6479 24.7407 19.9655 24.8085 20.269C24.8761 20.5723 25.0617 20.8362 25.3243 21.0023C25.5872 21.1687 25.9051 21.2234 26.2081 21.1546C26.5113 21.0857 26.7744 20.8993 26.9398 20.6362L27.5695 19.646V19.6458C27.7268 19.4033 27.7888 19.1109 27.7432 18.8257C27.6976 18.5401 27.5476 18.2817 27.3226 18.1002C27.0975 17.9187 26.813 17.8272 26.5244 17.8434L26.5246 17.8429ZM19.7822 18.3175L19.782 18.318C19.4545 18.3102 19.1387 18.4403 18.9115 18.6766C18.6847 18.9131 18.5673 19.2338 18.5882 19.5611C18.6093 19.8881 18.7668 20.1911 19.0224 20.3966L19.91 21.145H19.9098C20.1463 21.3461 20.4532 21.4446 20.7624 21.4193C21.0717 21.3938 21.3583 21.2465 21.5588 21.0094C21.7596 20.7726 21.8577 20.4657 21.8316 20.1565C21.8055 19.8469 21.6577 19.5609 21.4204 19.3606L20.5236 18.6007V18.601C20.317 18.4229 20.0547 18.3227 19.782 18.3178L19.7822 18.3175ZM14.3221 20.4028L14.3218 20.4033C13.9095 20.4096 13.5311 20.6328 13.3259 20.9906C13.121 21.3484 13.1197 21.7875 13.3225 22.1465L13.884 23.1735H13.8837C14.0227 23.4613 14.2733 23.6799 14.5776 23.7779C14.8817 23.876 15.2129 23.8452 15.4937 23.6929C15.7746 23.5404 15.9808 23.2793 16.0643 22.9709C16.1475 22.6624 16.1011 22.333 15.9352 22.06L15.3738 21.0333V21.0331C15.2742 20.8409 15.1229 20.6803 14.9373 20.5692C14.7513 20.4581 14.5385 20.4005 14.3218 20.4033L14.3221 20.4028ZM23.6452 22.0412L23.645 22.0417C23.2929 22.049 22.963 22.2149 22.7469 22.4929C22.5307 22.7708 22.4517 23.1315 22.5315 23.4747L22.7732 24.6132H22.7735C22.8262 24.9264 23.004 25.2046 23.2661 25.3837C23.5281 25.5632 23.852 25.6278 24.1631 25.5634C24.474 25.4987 24.7452 25.3105 24.9144 25.0416C25.0837 24.7728 25.1361 24.4468 25.0597 24.1386L24.8179 22.991C24.766 22.7195 24.6198 22.4755 24.4051 22.3015C24.1905 22.1279 23.9212 22.0358 23.645 22.0418L23.6452 22.0412ZM19.0909 23.7365L19.0907 23.737C19.0502 23.7365 19.0098 23.7378 18.9697 23.7414C18.761 23.7605 18.5613 23.8353 18.3915 23.9581C18.2218 24.0812 18.088 24.2473 18.0046 24.4395L17.53 25.5097C17.3925 25.7939 17.3758 26.1217 17.4838 26.4184C17.5918 26.7152 17.8152 26.9554 18.1034 27.0847C18.3915 27.2138 18.7196 27.2211 19.0132 27.1045C19.3066 26.988 19.5402 26.7574 19.6609 26.4656L20.1423 25.3978H20.1426C20.3103 25.0372 20.2831 24.616 20.0703 24.2802C19.8576 23.944 19.4883 23.7393 19.0906 23.7367L19.0909 23.7365Z" fill="url(#paint0_linear_18_4373)" stroke="url(#paint1_linear_18_4373)" stroke-width="2" mask="url(#path-1-inside-1_18_4373)"/>
<defs>
<linearGradient id="paint0_linear_18_4373" x1="-0.285239" y1="36.6654" x2="41.0677" y2="33.6438" gradientUnits="userSpaceOnUse">
<stop stop-color="#6B4DE0"/>
<stop offset="0.544792" stop-color="#9C42E3"/>
<stop offset="1" stop-color="#C339E5"/>
</linearGradient>
<linearGradient id="paint1_linear_18_4373" x1="-0.285239" y1="36.6654" x2="41.0677" y2="33.6438" gradientUnits="userSpaceOnUse">
<stop stop-color="#6B4DE0"/>
<stop offset="0.544792" stop-color="#9C42E3"/>
<stop offset="1" stop-color="#C339E5"/>
</linearGradient>
</defs>
</svg>
