<svg width="40" height="40" viewBox="0 0 40 40" fill="none" xmlns="http://www.w3.org/2000/svg">
<path d="M34.9965 22.2196C35.4385 22.2196 35.8625 22.0441 36.175 21.7316C36.4874 21.4191 36.663 20.995 36.663 20.5532C36.663 20.1113 36.4874 19.6872 36.175 19.3748C35.8625 19.0624 35.4384 18.8867 34.9965 18.8867C34.5547 18.8867 34.1305 19.0623 33.8181 19.3748C33.5057 19.6872 33.3301 20.1113 33.3301 20.5532C33.3306 20.9951 33.5064 21.4187 33.8186 21.7311C34.1311 22.0434 34.5547 22.2192 34.9966 22.2197L34.9965 22.2196ZM34.9965 19.9976C35.2212 19.9976 35.4238 20.133 35.5096 20.3406C35.5957 20.5482 35.5483 20.787 35.3894 20.946C35.2304 21.1049 34.9916 21.1523 34.784 21.0662C34.5764 20.9804 34.441 20.7778 34.441 20.5531C34.4413 20.2464 34.6898 19.9979 34.9965 19.9976Z" fill="#9E62B3"/>
<path d="M30.5532 18.8876C30.9951 18.8876 31.4192 18.712 31.7316 18.3996C32.044 18.0871 32.2196 17.663 32.2196 17.2211C32.2196 16.7793 32.0441 16.3551 31.7316 16.0427C31.4191 15.7303 30.995 15.5547 30.5532 15.5547C30.1113 15.5547 29.6872 15.7303 29.3748 16.0427C29.0624 16.3552 28.8867 16.7793 28.8867 17.2211C28.8872 17.6631 29.063 18.0866 29.3753 18.3991C29.6877 18.7113 30.1113 18.8872 30.5532 18.8877L30.5532 18.8876ZM30.5532 16.6656C30.7779 16.6656 30.9805 16.801 31.0663 17.0086C31.1523 17.2161 31.105 17.455 30.946 17.6139C30.787 17.7729 30.5482 17.8203 30.3406 17.7342C30.1331 17.6484 29.9977 17.4458 29.9977 17.2211C29.9979 16.9144 30.2464 16.6659 30.5532 16.6656Z" fill="#9E62B3"/>
<path d="M31.109 21.6649C31.109 21.9716 30.8603 22.2204 30.5535 22.2204C30.2468 22.2204 29.998 21.9716 29.998 21.6649C29.998 21.3581 30.2468 21.1094 30.5535 21.1094C30.8603 21.1094 31.109 21.3581 31.109 21.6649Z" fill="#9E62B3"/>
<path d="M35.5524 16.1102C35.5524 16.4169 35.3037 16.6657 34.9969 16.6657C34.6901 16.6657 34.4414 16.4169 34.4414 16.1102C34.4414 15.8034 34.6901 15.5547 34.9969 15.5547C35.3037 15.5547 35.5524 15.8034 35.5524 16.1102Z" fill="#9E62B3"/>
<path d="M35.493 29.9958H35.5527C35.7 29.9958 35.8414 29.9373 35.9455 29.8331C36.0497 29.729 36.1082 29.5876 36.1082 29.4403V26.1073C36.1082 25.96 36.0497 25.8187 35.9455 25.7145C35.8414 25.6103 35.7 25.5518 35.5527 25.5518H34.4417V24.4408H34.9972C35.304 24.4408 35.5527 24.1921 35.5527 23.8853C35.5527 23.5786 35.304 23.3298 34.9972 23.3298H30.5533C30.2465 23.3298 29.9978 23.5786 29.9978 23.8853C29.9978 24.1921 30.2465 24.4408 30.5533 24.4408H31.1087V25.9776C30.9007 26.1639 30.7425 26.3994 30.6487 26.6628H27.5347L24.4428 21.5096V18.3304C24.442 17.6903 24.2206 17.0701 23.8159 16.5744C23.4111 16.0784 22.8477 15.7374 22.2208 15.6084V10.5534C22.2208 7.97331 20.8444 5.58944 18.6101 4.29936C16.3757 3.00959 13.623 3.00959 11.3886 4.29936C9.15426 5.58938 7.7779 7.97331 7.7779 10.5534V15.6084C7.15098 15.7374 6.58755 16.0784 6.18283 16.5744C5.77811 17.0701 5.55665 17.6903 5.55591 18.3304V21.6207L3.3404 36.0217C3.31585 36.1819 3.36247 36.3448 3.46787 36.4678C3.57351 36.5908 3.72751 36.6615 3.88945 36.6615H21.6653C21.8126 36.6615 21.954 36.603 22.0581 36.4988C22.1623 36.3947 22.2208 36.2533 22.2208 36.106V29.5715L23.3906 31.9108C23.4846 32.099 23.677 32.2178 23.8873 32.2178H28.9272C28.7328 33.5562 29.2476 34.8995 30.287 35.765C31.3263 36.6305 32.7405 36.8936 34.0217 36.4601C35.3028 36.0266 36.2667 34.9586 36.5668 33.6397C36.8669 32.3209 36.4602 30.9411 35.493 29.9958H35.493ZM34.9972 28.8848H32.2197C31.913 28.8846 31.6645 28.6361 31.6642 28.3293V27.2183C31.6645 26.9116 31.913 26.6631 32.2197 26.6628H34.9972V28.8848ZM32.2197 24.4408H33.3307V25.5518H32.2197V24.4408ZM23.3318 18.3304V21.1079H17.2213V19.4741C18.7591 18.7093 19.7977 17.21 19.9736 15.5016C20.3857 15.4215 20.7743 15.2486 21.1098 14.9959V16.1084C21.1098 16.2557 21.1683 16.3971 21.2725 16.5012C21.3767 16.6054 21.518 16.6639 21.6653 16.6639C22.1072 16.6644 22.5308 16.8402 22.843 17.1527C23.1555 17.4649 23.3313 17.8885 23.3318 18.3304L23.3318 18.3304ZM11.9997 22.8854L11.1109 22.2188H12.9897L14.4439 25.1275V27.7738L12.2219 24.8111V23.3298C12.2219 23.155 12.1395 22.9903 11.9997 22.8854ZM11.1109 11.1089H18.8878V13.9712L16.4238 14.3819L16.0519 13.6379H16.0516C15.9576 13.4497 15.7652 13.3309 15.5549 13.3309H14.4439C14.2336 13.3309 14.0412 13.4497 13.9469 13.6379L13.5749 14.3819L11.1109 13.9712L11.1109 11.1089ZM19.9988 11.2044C20.4345 11.3586 20.7867 11.687 20.9709 12.1108C21.1551 12.5346 21.1552 13.0162 20.9709 13.44C20.7867 13.8639 20.4345 14.1922 19.9988 14.3464V11.2044ZM12.9088 9.99792L17.0314 7.93661L18.4057 9.99792H12.9088ZM10.0001 14.3464C9.56442 14.1922 9.21229 13.8638 9.02805 13.44C8.84382 13.0162 8.8438 12.5346 9.02805 12.1108C9.21231 11.6869 9.56445 11.3586 10.0001 11.2044V14.3464ZM13.7973 15.5455C14.0379 15.5854 14.2764 15.4639 14.3853 15.2459L14.7873 14.4419H15.2116L15.6136 15.2459C15.723 15.4639 15.9613 15.5854 16.2018 15.5455L18.8855 15.0981C18.8508 16.463 18.1026 17.7097 16.9145 18.3822C15.7264 19.0547 14.2727 19.0547 13.0846 18.3822C11.8964 17.7096 11.1483 16.463 11.1135 15.0981L13.7973 15.5455ZM14.9996 19.9969C15.3736 19.9966 15.7461 19.9542 16.1106 19.8709V21.5322L14.9996 23.7541L13.8886 21.5322V19.8709C14.2532 19.9542 14.6256 19.9966 14.9996 19.9969ZM15.5551 25.1275L17.0093 22.2188H18.8881L17.9993 22.8854C17.8594 22.9903 17.7771 23.155 17.7771 23.3298V24.8111L15.5551 27.7738V25.1275ZM14.9996 4.4427C16.6198 4.44444 18.1729 5.08898 19.3183 6.23445C20.4638 7.37991 21.1083 8.93308 21.1101 10.5532V10.5546C20.7143 10.2563 20.2453 10.0701 19.7526 10.0153L17.6838 6.91192C17.5283 6.67905 17.2238 6.59797 16.9731 6.72344L10.4176 10.0014V10.0011C9.86411 10.0282 9.3317 10.2211 8.88928 10.5546V10.5532C8.89101 8.93302 9.53556 7.37991 10.681 6.23445C11.8265 5.08898 13.3797 4.44448 14.9997 4.4427L14.9996 4.4427ZM8.33365 16.6636C8.48096 16.6636 8.62231 16.6051 8.72647 16.5009C8.83062 16.3968 8.88915 16.2554 8.88915 16.1081V14.9957C9.22468 15.2484 9.61326 15.4212 10.0254 15.5013C10.2012 17.2097 11.2398 18.709 12.7776 19.4738V21.1076H6.66716V18.3301C6.66766 17.8882 6.84348 17.4646 7.15595 17.1524C7.46817 16.8399 7.89174 16.6641 8.33366 16.6636L8.33365 16.6636ZM6.58831 22.2186H9.25965L11.1111 23.6073V24.9961C11.1111 25.1163 11.1501 25.2331 11.2222 25.3294L14.4441 29.625V35.5505H8.88915V27.2181C8.88915 26.9113 8.64041 26.6626 8.33365 26.6626C8.02689 26.6626 7.77816 26.9113 7.77816 27.2181V35.5505H4.53717L6.58831 22.2186ZM24.2309 31.1065L22.1624 26.9696C22.0473 26.7392 21.7887 26.6182 21.538 26.6774C21.2873 26.7367 21.1102 26.9604 21.1102 27.2181V35.5505H15.5552V29.625L18.7771 25.3294C18.8493 25.2331 18.8882 25.1163 18.8882 24.9961V23.6073L20.7399 22.2186H23.573L26.744 27.5037C26.8444 27.6714 27.0255 27.7735 27.2206 27.7735H30.5536V28.329C30.5534 28.7038 30.6801 29.0673 30.9129 29.3607C30.1935 29.7555 29.6164 30.366 29.2631 31.1065H24.2309ZM32.7754 35.5505C32.0388 35.5505 31.3323 35.2579 30.8113 34.7371C30.2905 34.2161 29.9979 33.5096 29.9979 32.773C29.9979 32.0365 30.2905 31.33 30.8113 30.8089C31.3323 30.2881 32.0388 29.9955 32.7754 29.9955C33.5119 29.9955 34.2184 30.2882 34.7395 30.8089C35.2602 31.3299 35.5528 32.0365 35.5528 32.773C35.5521 33.5093 35.2592 34.2153 34.7385 34.7361C34.2177 35.2569 33.5117 35.5497 32.7754 35.5505Z" fill="#9E62B3"/>
</svg>
