<svg width="40" height="40" viewBox="0 0 40 40" fill="none" xmlns="http://www.w3.org/2000/svg">
<path d="M7.94357 19.7147C7.78375 19.5558 7.52557 19.5558 7.36546 19.7147L5.06615 22.014V22.0143C4.38253 22.7008 3.99912 23.6306 4 24.5995C4.00088 25.5685 4.3857 26.4975 5.07046 27.1831C5.75494 27.8687 6.68358 28.2547 7.65253 28.2567C8.62264 28.2558 9.55242 27.8698 10.2383 27.1836C10.9239 26.4975 11.3091 25.5671 11.3091 24.597C11.3094 23.6269 10.9242 22.6965 10.2389 22.01L7.94357 19.7147ZM9.66107 26.6089C9.1287 27.1385 8.40733 27.4335 7.65651 27.4286C6.90429 27.4309 6.18201 27.1344 5.64799 26.6046C5.11397 26.0748 4.81197 25.3549 4.80795 24.6026C4.80423 23.8504 5.09901 23.1273 5.62764 22.5921L7.63616 20.5835L9.64467 22.5921H9.64439C10.177 23.123 10.4778 23.8432 10.4807 24.5952C10.4838 25.3471 10.1891 26.0696 9.661 26.6048L9.66107 26.6089ZM9.68566 24.7602V24.7605C9.68566 25.304 9.46951 25.8252 9.08524 26.2095C8.70097 26.5941 8.17976 26.8099 7.63622 26.8099C7.40977 26.8099 7.22622 26.6264 7.22622 26.3999C7.22622 26.1735 7.40977 25.9902 7.63622 25.9902C7.96216 25.9902 8.27495 25.8604 8.50569 25.63C8.73614 25.3992 8.86566 25.0864 8.86566 24.7605C8.88567 24.5509 9.06123 24.3905 9.27166 24.3894C9.48238 24.3882 9.65936 24.5469 9.68138 24.7562L9.68566 24.7602ZM34.4472 25.5799L27.643 18.7637L18.8963 10.017L19.921 8.99233C20.0797 8.8325 20.0797 8.57432 19.921 8.4145L17.2935 5.78698C17.1337 5.6283 16.8755 5.6283 16.7157 5.78698L7.37467 15.128C7.2157 15.2878 7.2157 15.546 7.37467 15.7061L10.002 18.3334H10.0023C10.1621 18.4924 10.4203 18.4924 10.5801 18.3334L11.6048 17.3087L27.1805 32.8844C28.1483 33.8613 29.4663 34.4114 30.8416 34.4117C32.2169 34.4123 33.5355 33.8636 34.5042 32.8872C35.4728 31.9108 36.0112 30.5882 35.9998 29.2129C35.9887 27.8377 35.4283 26.524 34.4436 25.5639L34.4472 25.5799ZM11.3128 16.4438L10.288 17.4685L8.23861 15.4191L17.0065 6.65561L19.0559 8.70504L18.0312 9.72976L11.3128 16.4438ZM12.186 16.7389L18.3343 10.5906L26.3592 18.6405H14.0912L12.186 16.7389ZM33.8645 32.278C33.0494 33.0939 31.9435 33.5526 30.7904 33.5526C29.637 33.5526 28.5311 33.094 27.7163 32.278L14.911 19.461H27.179L33.8602 26.1422H33.8599C34.6739 26.9556 35.1314 28.0587 35.1323 29.2095C35.1328 30.36 34.6768 31.4636 33.8643 32.2782L33.8645 32.278ZM27.4827 22.9406C27.7108 23.1691 27.7789 23.5127 27.6551 23.8115C27.5313 24.11 27.2399 24.3044 26.9169 24.3044C26.5938 24.3044 26.3024 24.11 26.1786 23.8115C26.0548 23.5127 26.1229 23.169 26.3513 22.9406C26.5011 22.7902 26.7047 22.7059 26.9169 22.7059C27.129 22.7059 27.3326 22.7902 27.4827 22.9406ZM27.2039 27.0395C27.3923 27.2282 27.4484 27.5118 27.346 27.7583C27.244 28.0047 27.0032 28.1651 26.7365 28.1651C26.4697 28.1651 26.2292 28.0047 26.1272 27.7583C26.0248 27.5118 26.0809 27.2282 26.2693 27.0395C26.5243 26.7813 26.94 26.7776 27.1996 27.0312L27.2039 27.0395ZM30.8602 26.3264L30.8599 26.3261C30.9928 26.4602 31.0317 26.6606 30.9594 26.8348C30.8868 27.0089 30.7167 27.1221 30.528 27.1221C30.3395 27.1221 30.1694 27.0089 30.0968 26.8348C30.0242 26.6606 30.0633 26.4602 30.196 26.3261C30.3761 26.142 30.6712 26.1383 30.8559 26.3178L30.8602 26.3264ZM23.1748 24.3545C23.3309 24.5186 23.3741 24.7596 23.2849 24.9675C23.1957 25.1753 22.9913 25.31 22.7651 25.31C22.5389 25.31 22.3345 25.1754 22.2453 24.9675C22.1561 24.7596 22.1993 24.5186 22.3551 24.3545C22.462 24.2424 22.6101 24.1787 22.7651 24.1787C22.9201 24.1787 23.0682 24.2424 23.1748 24.3545ZM23.6872 20.6042C23.8433 20.768 23.8865 21.009 23.7973 21.2169C23.708 21.4248 23.5036 21.5597 23.2775 21.5597C23.0513 21.5597 22.8469 21.4247 22.7577 21.2169C22.6685 21.009 22.7116 20.768 22.8675 20.6042C22.9744 20.4918 23.1225 20.4283 23.2775 20.4283C23.4324 20.4283 23.5805 20.4918 23.6872 20.6042ZM30.5571 30.3104C30.7292 30.4828 30.7807 30.7419 30.6872 30.9669C30.594 31.1919 30.3744 31.3386 30.1308 31.3386C29.8869 31.3386 29.6673 31.1919 29.5741 30.9669C29.4809 30.7419 29.5321 30.4828 29.7045 30.3104C29.8174 30.1972 29.9707 30.1337 30.1308 30.1337C30.2906 30.1337 30.4438 30.1972 30.5571 30.3104H30.5571Z" fill="url(#paint0_linear_18_4554)" stroke="url(#paint1_linear_18_4554)"/>
<defs>
<linearGradient id="paint0_linear_18_4554" x1="0.525253" y1="34.4117" x2="40.177" y2="31.1859" gradientUnits="userSpaceOnUse">
<stop stop-color="#6B4DE0"/>
<stop offset="0.544792" stop-color="#9C42E3"/>
<stop offset="1" stop-color="#C339E5"/>
</linearGradient>
<linearGradient id="paint1_linear_18_4554" x1="0.525253" y1="34.4117" x2="40.177" y2="31.1859" gradientUnits="userSpaceOnUse">
<stop stop-color="#6B4DE0"/>
<stop offset="0.544792" stop-color="#9C42E3"/>
<stop offset="1" stop-color="#C339E5"/>
</linearGradient>
</defs>
</svg>
