<svg width="32" height="32" viewBox="0 0 32 32" fill="none" xmlns="http://www.w3.org/2000/svg">
<path fill-rule="evenodd" clip-rule="evenodd" d="M8.40001 19.4922H6.84439C6.73794 19.4922 6.6474 19.5721 6.6308 19.6807L6.00163 23.8033C5.98913 23.8847 6.05009 23.958 6.12993 23.958H6.87259C6.97905 23.958 7.06958 23.878 7.08618 23.7692L7.25588 22.6573C7.27225 22.5484 7.36301 22.4686 7.46924 22.4686H7.96169C8.98644 22.4686 9.57781 21.9561 9.73233 20.9406C9.80191 20.4963 9.73528 20.1472 9.53391 19.9026C9.31286 19.6343 8.92065 19.4922 8.40001 19.4922ZM8.57949 20.9979C8.49443 21.5748 8.06793 21.5748 7.65553 21.5748H7.42079L7.58547 20.4974C7.59525 20.4323 7.64984 20.3843 7.71353 20.3843H7.82112C8.10204 20.3843 8.36706 20.3843 8.50401 20.5498C8.58559 20.6486 8.61064 20.7952 8.57949 20.9979ZM13.0501 20.9794H12.3052C12.2417 20.9794 12.1869 21.0274 12.1771 21.0925L12.1441 21.3078L12.092 21.2298C11.9308 20.9879 11.5712 20.9071 11.2122 20.9071C10.389 20.9071 9.68591 21.5514 9.54896 22.4553C9.47781 22.9061 9.57897 23.3372 9.82644 23.6379C10.0535 23.9144 10.3783 24.0296 10.7648 24.0296C11.428 24.0296 11.7959 23.5888 11.7959 23.5888L11.7627 23.8027C11.7501 23.8845 11.8111 23.9579 11.8904 23.9579H12.5615C12.6682 23.9579 12.7582 23.8779 12.7751 23.7691L13.1777 21.1341C13.1905 21.0531 13.1297 20.9794 13.0501 20.9794ZM12.0117 22.4778C11.9398 22.9177 11.602 23.2129 11.1713 23.2129C10.955 23.2129 10.782 23.1412 10.6711 23.0053C10.561 22.8704 10.5191 22.6783 10.5541 22.4644C10.6213 22.0283 10.9648 21.7235 11.389 21.7235C11.6004 21.7235 11.7724 21.7961 11.8857 21.9331C11.9992 22.0716 12.0442 22.2648 12.0117 22.4778ZM16.269 20.9793H17.0176C17.1225 20.9793 17.1836 21.1008 17.1241 21.1897L14.6343 24.9039C14.5939 24.964 14.5275 24.9998 14.4566 24.9998H13.7089C13.6036 24.9998 13.5421 24.8773 13.6031 24.7882L14.3784 23.6573L13.5538 21.1565C13.5253 21.0696 13.5874 20.9793 13.6769 20.9793H14.4125C14.508 20.9793 14.5924 21.0441 14.6199 21.1387L15.0575 22.6491L16.09 21.0773C16.1305 21.016 16.1976 20.9793 16.269 20.9793Z" fill="#253B80"/>
<path fill-rule="evenodd" clip-rule="evenodd" d="M24.3852 23.8035L25.0236 19.6055C25.0334 19.5404 25.088 19.4924 25.1515 19.4922H25.8702C25.9496 19.4922 26.0105 19.5657 25.998 19.6471L25.3684 23.7695C25.352 23.8782 25.2615 23.9582 25.1549 23.9582H24.513C24.4336 23.9582 24.3726 23.8849 24.3852 23.8035ZM19.4958 19.4924H17.9399C17.8337 19.4924 17.7431 19.5724 17.7265 19.6809L17.0973 23.8035C17.0848 23.8849 17.1458 23.9582 17.2252 23.9582H18.0236C18.0978 23.9582 18.1612 23.9023 18.1728 23.8261L18.3513 22.6575C18.3678 22.5487 18.4585 22.4688 18.5647 22.4688H19.0569C20.0819 22.4688 20.6731 21.9563 20.8278 20.9408C20.8976 20.4965 20.8305 20.1474 20.6293 19.9029C20.4083 19.6345 20.0164 19.4924 19.4958 19.4924ZM19.6752 20.9981C19.5904 21.575 19.1639 21.575 18.7512 21.575H18.5167L18.6817 20.4976C18.6915 20.4325 18.7456 20.3846 18.8095 20.3846H18.917C19.1978 20.3846 19.463 20.3846 19.5999 20.55C19.6816 20.6488 19.7064 20.7954 19.6752 20.9981ZM24.1455 20.9796H23.4011C23.3371 20.9796 23.2827 21.0276 23.2732 21.0928L23.2402 21.3081L23.1879 21.2301C23.0266 20.9881 22.6673 20.9073 22.3083 20.9073C21.485 20.9073 20.7822 21.5516 20.6453 22.4555C20.5743 22.9063 20.675 23.3375 20.9225 23.6381C21.15 23.9146 21.4744 24.0298 21.8608 24.0298C22.5241 24.0298 22.8919 23.589 22.8919 23.589L22.8587 23.803C22.8462 23.8848 22.9072 23.9581 22.9871 23.9581H23.6578C23.764 23.9581 23.8545 23.8781 23.8712 23.7693L24.274 21.1343C24.2863 21.0533 24.2254 20.9796 24.1455 20.9796ZM23.1072 22.478C23.0357 22.9179 22.6975 23.2131 22.2666 23.2131C22.0507 23.2131 21.8775 23.1414 21.7664 23.0056C21.6563 22.8707 21.6149 22.6785 21.6496 22.4647C21.717 22.0285 22.0601 21.7237 22.4843 21.7237C22.6959 21.7237 22.8678 21.7963 22.9812 21.9334C23.0951 22.0718 23.1401 22.265 23.1072 22.478Z" fill="#179BD7"/>
<path d="M14.1576 18.0175L14.3489 16.7621L13.9229 16.7518H11.8887L13.3024 7.488C13.3067 7.46003 13.321 7.43395 13.3418 7.41544C13.3627 7.39692 13.3894 7.38672 13.4172 7.38672H16.8472C17.986 7.38672 18.7718 7.63161 19.1821 8.11496C19.3744 8.34171 19.4969 8.57866 19.5562 8.83942C19.6183 9.11304 19.6194 9.43993 19.5587 9.83863L19.5543 9.86773V10.1232L19.7467 10.2358C19.9087 10.3246 20.0373 10.4263 20.1361 10.5427C20.3007 10.7366 20.4071 10.983 20.4521 11.2751C20.4985 11.5755 20.4831 11.933 20.4071 12.3378C20.3193 12.8034 20.1774 13.2089 19.9859 13.5407C19.8096 13.8464 19.585 14.1 19.3185 14.2965C19.064 14.4832 18.7615 14.625 18.4196 14.7157C18.0883 14.8048 17.7106 14.8498 17.2963 14.8498H17.0293C16.8385 14.8498 16.653 14.9209 16.5075 15.0482C16.3616 15.1782 16.265 15.3558 16.2354 15.5501L16.2153 15.6631L15.8774 17.8757L15.8621 17.957C15.8581 17.9828 15.8511 17.9956 15.8409 18.0043C15.8317 18.0121 15.8186 18.0175 15.8057 18.0175H14.1576Z" fill="#253B80"/>
<path d="M19.9269 9.89844C19.9167 9.96608 19.905 10.0352 19.8919 10.1063C19.4394 12.5064 17.892 13.3356 15.9154 13.3356H14.9091C14.6674 13.3356 14.4637 13.517 14.4261 13.7634L13.9108 17.1405L13.7649 18.0977C13.7404 18.2594 13.8611 18.4053 14.019 18.4053H15.804C16.0153 18.4053 16.1948 18.2466 16.2281 18.0312L16.2456 17.9374L16.5817 15.7334L16.6033 15.6126C16.6362 15.3964 16.8161 15.2377 17.0274 15.2377H17.2944C19.0237 15.2377 20.3774 14.5121 20.7731 12.4123C20.9384 11.5352 20.8528 10.8028 20.4155 10.2877C20.2831 10.1324 20.1189 10.0035 19.9269 9.89844Z" fill="#179BD7"/>
<path d="M19.4535 9.70295C19.3844 9.68216 19.3131 9.66326 19.2399 9.64626C19.1664 9.62964 19.0911 9.6149 19.0136 9.60205C18.7422 9.5567 18.445 9.53516 18.1264 9.53516H15.438C15.3718 9.53516 15.3089 9.55065 15.2526 9.57862C15.1286 9.64021 15.0365 9.76153 15.0142 9.91005L14.4422 13.6537L14.4258 13.7629C14.4635 13.5165 14.6672 13.3351 14.9088 13.3351H15.9152C17.8917 13.3351 19.4393 12.5056 19.8916 10.1058C19.9051 10.0348 19.9164 9.9656 19.9267 9.89796C19.8122 9.83522 19.6882 9.78156 19.5548 9.73582C19.5219 9.72449 19.4879 9.71353 19.4535 9.70295Z" fill="#222D65"/>
<path d="M15.0156 9.90957C15.0379 9.76104 15.1301 9.63974 15.254 9.57851C15.3107 9.55054 15.3733 9.53505 15.4394 9.53505H18.1279C18.4464 9.53505 18.7437 9.55659 19.015 9.60194C19.0925 9.61479 19.1679 9.62953 19.2414 9.64615C19.3145 9.66317 19.3858 9.68207 19.455 9.70284C19.4893 9.71343 19.5233 9.72438 19.5565 9.73535C19.69 9.78107 19.814 9.83512 19.9284 9.89747C20.0631 9.0105 19.9274 8.4066 19.4634 7.85975C18.9518 7.25774 18.0284 7 16.847 7H13.4168C13.1755 7 12.9697 7.18139 12.9323 7.42817L11.5037 16.7872C11.4755 16.9724 11.6137 17.1395 11.7943 17.1395H13.912L14.4437 13.6532L15.0156 9.90957Z" fill="#253B80"/>
</svg>
