<svg width="40" height="40" viewBox="0 0 40 40" fill="none" xmlns="http://www.w3.org/2000/svg">
<path d="M20.058 3.34036C19.9588 3.35043 19.8616 3.37368 19.7686 3.40985C16.2203 4.83074 12.4685 6.23899 6.07765 6.44183C5.78907 6.45088 5.51549 6.57204 5.3145 6.77924C5.11376 6.98669 5.00138 7.26415 5.00138 7.55297C4.99828 8.78894 5.00138 15.7546 5.00138 16.8922C5.00164 23.2018 6.93304 27.7128 9.79267 30.8259C12.652 33.9384 16.3689 35.6379 19.8845 36.6237C20.0814 36.6793 20.2896 36.6793 20.4862 36.6237C24.0015 35.6379 27.7183 33.9384 30.578 30.8259C33.4374 27.7131 35.369 23.2023 35.3693 16.8922C35.3693 15.7547 35.3724 8.78907 35.3693 7.55297C35.3693 7.26414 35.2572 6.98668 35.0562 6.77924C34.8552 6.57204 34.5816 6.45088 34.293 6.44183C27.9028 6.23877 24.1509 4.8308 20.602 3.40985C20.4295 3.34165 20.2424 3.31763 20.0582 3.34036H20.058ZM20.1854 5.64324C23.4695 6.94713 27.3539 8.24223 33.1469 8.57112C33.1484 10.6413 33.1469 15.874 33.1469 16.8918C33.1466 22.7581 31.4263 26.6212 28.9459 29.3209C26.5422 31.9374 23.3534 33.4519 20.1854 34.3783C17.017 33.4522 13.8282 31.9375 11.4249 29.3209C8.94447 26.6209 7.22412 22.7581 7.22386 16.8918C7.22386 15.8736 7.22231 10.6411 7.22386 8.57112C13.0168 8.24224 16.901 6.94713 20.1854 5.64324ZM27.1641 13.6981V13.6983C26.8763 13.7156 26.6064 13.8443 26.4118 14.0569L17.6282 23.5118L13.9943 19.2762C13.8029 19.0507 13.5295 18.9107 13.2348 18.8872C12.9397 18.8636 12.6478 18.9587 12.4231 19.1512C12.1983 19.3434 12.0596 19.6175 12.0374 19.9123C12.0151 20.2073 12.1113 20.499 12.3048 20.723L16.7488 25.9075H16.7486C16.9545 26.1473 17.2526 26.2881 17.5683 26.2945C17.8843 26.3013 18.1878 26.1731 18.4036 25.9424L28.0324 15.5728C28.2383 15.3563 28.3481 15.0662 28.3376 14.7678C28.327 14.4691 28.1965 14.1875 27.9759 13.9863C27.7552 13.7851 27.4628 13.6812 27.1646 13.698L27.1641 13.6981Z" fill="#9E62B3"/>
</svg>
