<svg width="40" height="40" viewBox="0 0 40 40" fill="none" xmlns="http://www.w3.org/2000/svg">
<path d="M16.8558 14.2572C16.9436 14.2572 17.032 14.2503 17.12 14.2357L19.3445 13.8652C19.4888 13.8413 19.6351 13.8413 19.7793 13.8652L22.0085 14.2364C22.5249 14.3196 23.052 14.1502 23.4184 13.7823C23.6856 13.5143 23.6849 13.0802 23.4167 12.813C23.1487 12.5457 22.7146 12.5464 22.4477 12.8147C22.3917 12.8706 22.3097 12.8966 22.2306 12.8837L20.0045 12.5132C19.7112 12.4642 19.4136 12.4645 19.1195 12.5132L16.896 12.8833C16.8159 12.8969 16.732 12.8696 16.6761 12.8139C16.4084 12.5462 15.9745 12.5457 15.7068 12.8135C15.4391 13.0809 15.4388 13.515 15.7063 13.7828C16.012 14.0885 16.4275 14.2572 16.8558 14.2572L16.8558 14.2572Z" fill="url(#paint0_linear_18_4553)" stroke="url(#paint1_linear_18_4553)" stroke-width="0.5"/>
<path d="M21.9335 23.9727C21.6147 23.9727 21.3023 24.0329 21.0044 24.1515L19.5637 24.7285L18.1209 24.151C17.8238 24.0327 17.5114 23.9727 17.1927 23.9727C16.5249 23.9727 15.8966 24.2332 15.4244 24.7058C14.8435 25.2869 14.5848 26.1158 14.7319 26.9224L15.4923 31.1036C15.7086 32.294 16.7439 33.1578 17.9539 33.1578H18.4975C18.8713 33.1578 19.233 33.0766 19.5638 32.9205C19.8942 33.0766 20.2559 33.1578 20.6299 33.1578H21.1742C22.3842 33.1578 23.419 32.2937 23.6346 31.1036L24.3948 26.9231C24.5418 26.1154 24.2834 25.2867 23.703 24.7058C23.2302 24.2332 22.6017 23.9727 21.9336 23.9727L21.9335 23.9727ZM23.0456 26.6778L22.2854 30.8588C22.1879 31.3969 21.7201 31.7872 21.1736 31.7872H20.6294C20.3882 31.7872 20.1594 31.7131 19.9673 31.5733C19.8473 31.4856 19.7055 31.4416 19.5638 31.4416C19.4222 31.4416 19.2807 31.4853 19.1605 31.5728C18.9678 31.7129 18.7386 31.7872 18.4972 31.7872H17.9536C17.4064 31.7872 16.9387 31.3966 16.8406 30.8583L16.0802 26.6766C16.0138 26.3121 16.1307 25.9375 16.3936 25.6743C16.6071 25.4606 16.8908 25.343 17.1925 25.343C17.3369 25.343 17.4784 25.3703 17.6125 25.4238L19.3089 26.1029C19.4724 26.1682 19.6548 26.1684 19.8186 26.1027L21.5131 25.4241C21.6476 25.3705 21.7891 25.343 21.9335 25.343C22.2357 25.343 22.5194 25.4606 22.7331 25.6743C22.9953 25.9375 23.1122 26.3123 23.0455 26.6778L23.0456 26.6778Z" fill="url(#paint2_linear_18_4553)" stroke="url(#paint3_linear_18_4553)" stroke-width="0.5"/>
<path d="M19.0325 27.357C19.0325 27.7333 18.7274 28.0383 18.3512 28.0383C17.9749 28.0383 17.6699 27.7333 17.6699 27.357C17.6699 26.9808 17.9749 26.6758 18.3512 26.6758C18.7274 26.6758 19.0325 26.9808 19.0325 27.357Z" fill="url(#paint4_linear_18_4553)" stroke="url(#paint5_linear_18_4553)" stroke-width="0.5"/>
<path d="M21.4543 27.357C21.4543 27.7333 21.1493 28.0383 20.7731 28.0383C20.3968 28.0383 20.0918 27.7333 20.0918 27.357C20.0918 26.9808 20.3968 26.6758 20.7731 26.6758C21.1493 26.6758 21.4543 26.9808 21.4543 27.357Z" fill="url(#paint6_linear_18_4553)" stroke="url(#paint7_linear_18_4553)" stroke-width="0.5"/>
<path d="M19.0322 29.7787C19.0322 30.1549 18.7272 30.4597 18.3509 30.4597C17.9749 30.4597 17.6699 30.1549 17.6699 29.7787C17.6699 29.4024 17.9749 29.0977 18.3509 29.0977C18.7272 29.0977 19.0322 29.4024 19.0322 29.7787Z" fill="url(#paint8_linear_18_4553)" stroke="url(#paint9_linear_18_4553)" stroke-width="0.5"/>
<path d="M21.4538 29.7787C21.4538 30.1549 21.1491 30.4597 20.7728 30.4597C20.3968 30.4597 20.0918 30.1549 20.0918 29.7787C20.0918 29.4024 20.3968 29.0977 20.7728 29.0977C21.1491 29.0977 21.4538 29.4024 21.4538 29.7787Z" fill="url(#paint10_linear_18_4553)" stroke="url(#paint11_linear_18_4553)" stroke-width="0.5"/>
<path d="M34.5748 33.4285L35.5625 32.4777C35.1396 32.0385 33.3382 31.3903 30.6202 30.6997C28.039 30.0433 27.3131 23.116 27.4611 18.8894C29.7563 16.6893 32.116 13.1513 33.1766 7.53925C33.2469 7.16755 33.0021 6.80872 32.6304 6.73847C32.2599 6.66868 31.8999 6.91273 31.8297 7.28467C30.7932 12.7689 28.3935 16.8394 24.697 19.3832C22.2223 21.0866 19.9585 21.4982 19.5025 21.5668C16.9323 21.1277 14.7286 19.971 12.9119 18.1144C12.8727 18.0575 12.8242 18.0085 12.7699 17.966C11.7232 16.8628 10.8075 15.5238 10.0282 13.9488C8.3841 10.6266 7.99253 7.45431 7.9861 7.39985C7.9426 7.02385 7.60221 6.75353 7.22645 6.7982C6.85045 6.8417 6.58104 7.18209 6.6248 7.55785C6.64081 7.69577 7.03666 10.976 8.78137 14.5192C9.59169 16.1647 10.5603 17.5889 11.6706 18.7795C11.7868 23.1551 11.0436 30.0544 8.50484 30.7C5.78675 31.3906 3.98541 32.0386 3.5625 32.478L4.55022 33.4288C4.55022 33.4288 4.53899 33.4456 4.50194 33.4735C4.5299 33.4525 5.22885 32.9469 8.84262 32.0286C12.5027 31.0978 13.01 23.5337 13.0484 20.0763C14.8747 21.5801 17.0035 22.5489 19.3813 22.9371C19.4179 22.9428 19.455 22.9459 19.4918 22.9459C19.5159 22.9459 19.5398 22.9445 19.564 22.9421C19.6773 22.9304 22.3733 22.6247 25.4091 20.558C25.6267 20.41 25.8492 20.2489 26.0753 20.0768C26.0863 23.2624 26.5195 31.072 30.2829 32.0291C33.8969 32.9472 34.5958 33.453 34.6238 33.474C34.5863 33.4456 34.5748 33.4288 34.5748 33.4288L34.5748 33.4285Z" fill="url(#paint12_linear_18_4553)" stroke="url(#paint13_linear_18_4553)" stroke-width="0.5"/>
<defs>
<linearGradient id="paint0_linear_18_4553" x1="14.625" y1="14.2572" x2="23.7342" y2="11.2246" gradientUnits="userSpaceOnUse">
<stop stop-color="#6B4DE0"/>
<stop offset="0.544792" stop-color="#9C42E3"/>
<stop offset="1" stop-color="#C339E5"/>
</linearGradient>
<linearGradient id="paint1_linear_18_4553" x1="14.625" y1="14.2572" x2="23.7342" y2="11.2246" gradientUnits="userSpaceOnUse">
<stop stop-color="#6B4DE0"/>
<stop offset="0.544792" stop-color="#9C42E3"/>
<stop offset="1" stop-color="#C339E5"/>
</linearGradient>
<linearGradient id="paint2_linear_18_4553" x1="13.6334" y1="33.1578" x2="25.7144" y2="32.2213" gradientUnits="userSpaceOnUse">
<stop stop-color="#6B4DE0"/>
<stop offset="0.544792" stop-color="#9C42E3"/>
<stop offset="1" stop-color="#C339E5"/>
</linearGradient>
<linearGradient id="paint3_linear_18_4553" x1="13.6334" y1="33.1578" x2="25.7144" y2="32.2213" gradientUnits="userSpaceOnUse">
<stop stop-color="#6B4DE0"/>
<stop offset="0.544792" stop-color="#9C42E3"/>
<stop offset="1" stop-color="#C339E5"/>
</linearGradient>
<linearGradient id="paint4_linear_18_4553" x1="17.522" y1="28.0383" x2="19.2125" y2="27.9148" gradientUnits="userSpaceOnUse">
<stop stop-color="#6B4DE0"/>
<stop offset="0.544792" stop-color="#9C42E3"/>
<stop offset="1" stop-color="#C339E5"/>
</linearGradient>
<linearGradient id="paint5_linear_18_4553" x1="17.522" y1="28.0383" x2="19.2125" y2="27.9148" gradientUnits="userSpaceOnUse">
<stop stop-color="#6B4DE0"/>
<stop offset="0.544792" stop-color="#9C42E3"/>
<stop offset="1" stop-color="#C339E5"/>
</linearGradient>
<linearGradient id="paint6_linear_18_4553" x1="19.9438" y1="28.0383" x2="21.6343" y2="27.9148" gradientUnits="userSpaceOnUse">
<stop stop-color="#6B4DE0"/>
<stop offset="0.544792" stop-color="#9C42E3"/>
<stop offset="1" stop-color="#C339E5"/>
</linearGradient>
<linearGradient id="paint7_linear_18_4553" x1="19.9438" y1="28.0383" x2="21.6343" y2="27.9148" gradientUnits="userSpaceOnUse">
<stop stop-color="#6B4DE0"/>
<stop offset="0.544792" stop-color="#9C42E3"/>
<stop offset="1" stop-color="#C339E5"/>
</linearGradient>
<linearGradient id="paint8_linear_18_4553" x1="17.522" y1="30.4597" x2="19.2122" y2="30.3362" gradientUnits="userSpaceOnUse">
<stop stop-color="#6B4DE0"/>
<stop offset="0.544792" stop-color="#9C42E3"/>
<stop offset="1" stop-color="#C339E5"/>
</linearGradient>
<linearGradient id="paint9_linear_18_4553" x1="17.522" y1="30.4597" x2="19.2122" y2="30.3362" gradientUnits="userSpaceOnUse">
<stop stop-color="#6B4DE0"/>
<stop offset="0.544792" stop-color="#9C42E3"/>
<stop offset="1" stop-color="#C339E5"/>
</linearGradient>
<linearGradient id="paint10_linear_18_4553" x1="19.9439" y1="30.4597" x2="21.6338" y2="30.3362" gradientUnits="userSpaceOnUse">
<stop stop-color="#6B4DE0"/>
<stop offset="0.544792" stop-color="#9C42E3"/>
<stop offset="1" stop-color="#C339E5"/>
</linearGradient>
<linearGradient id="paint11_linear_18_4553" x1="19.9439" y1="30.4597" x2="21.6338" y2="30.3362" gradientUnits="userSpaceOnUse">
<stop stop-color="#6B4DE0"/>
<stop offset="0.544792" stop-color="#9C42E3"/>
<stop offset="1" stop-color="#C339E5"/>
</linearGradient>
<linearGradient id="paint12_linear_18_4553" x1="0.0877534" y1="33.474" x2="39.6991" y2="30.011" gradientUnits="userSpaceOnUse">
<stop stop-color="#6B4DE0"/>
<stop offset="0.544792" stop-color="#9C42E3"/>
<stop offset="1" stop-color="#C339E5"/>
</linearGradient>
<linearGradient id="paint13_linear_18_4553" x1="0.0877534" y1="33.474" x2="39.6991" y2="30.011" gradientUnits="userSpaceOnUse">
<stop stop-color="#6B4DE0"/>
<stop offset="0.544792" stop-color="#9C42E3"/>
<stop offset="1" stop-color="#C339E5"/>
</linearGradient>
</defs>
</svg>
